<?xml version="1.0" standalone="no"?>
<!DOCTYPE svg PUBLIC "-//W3C//DTD SVG 20010904//EN"
 "http://www.w3.org/TR/2001/REC-SVG-20010904/DTD/svg10.dtd">
<svg version="1.0" xmlns="http://www.w3.org/2000/svg"
 width="3000.000000pt" height="3000.000000pt" viewBox="0 0 3000.000000 3000.000000"
 preserveAspectRatio="xMidYMid meet">
<metadata>
Created by potrace 1.11, written by Peter Selinger 2001-2013
</metadata>
<g transform="translate(0.000000,3000.000000) scale(0.100000,-0.100000)"
fill="#000000" stroke="none">
<path d="M14863 28516 c-94 -30 -161 -92 -198 -184 -14 -34 -25 -79 -25 -100
l0 -39 -102 -32 c-57 -18 -168 -53 -248 -77 -80 -25 -172 -54 -205 -64 -149
-47 -259 -81 -370 -115 -66 -20 -131 -40 -145 -45 -14 -5 -108 -34 -210 -65
-102 -31 -225 -69 -275 -85 -49 -16 -151 -47 -225 -70 -74 -23 -162 -51 -195
-62 -33 -10 -67 -21 -75 -23 -13 -3 -792 -244 -985 -305 -33 -10 -199 -62
-370 -115 -170 -53 -366 -113 -435 -135 -69 -22 -264 -82 -435 -135 -170 -53
-344 -107 -385 -120 -41 -13 -295 -92 -565 -175 -269 -83 -530 -164 -580 -180
-49 -16 -178 -56 -285 -89 -107 -33 -370 -115 -585 -181 -214 -67 -442 -137
-505 -156 -63 -20 -133 -42 -155 -50 -22 -7 -101 -32 -175 -55 -74 -22 -193
-58 -265 -81 -71 -22 -164 -50 -205 -63 -41 -13 -177 -55 -302 -94 -212 -67
-230 -70 -251 -56 -69 45 -207 54 -288 18 -86 -38 -156 -117 -179 -202 -14
-55 -15 -141 0 -185 11 -33 9 -39 -22 -83 -18 -26 -37 -52 -41 -58 -9 -11
-1213 -1711 -1286 -1815 -25 -36 -87 -123 -138 -195 -51 -71 -97 -137 -103
-145 -6 -8 -135 -190 -287 -405 -152 -214 -297 -420 -322 -456 -25 -36 -70
-99 -99 -140 -90 -125 -1242 -1751 -1270 -1793 -15 -21 -34 -49 -42 -61 -9
-13 -25 -36 -37 -52 -12 -15 -65 -89 -117 -163 -52 -74 -98 -139 -103 -145 -8
-9 -256 -360 -324 -459 -16 -23 -101 -142 -189 -266 -87 -124 -164 -232 -170
-240 -6 -8 -103 -145 -216 -305 -114 -159 -216 -304 -228 -322 -11 -17 -61
-88 -111 -158 l-89 -126 -55 4 c-281 21 -474 -265 -354 -523 9 -19 42 -61 74
-93 l58 -58 6 -802 c3 -441 8 -1088 10 -1437 6 -890 16 -2268 20 -2890 2 -289
4 -588 5 -665 l0 -140 85 0 c78 0 85 1 86 20 1 38 -1 337 -16 2445 -10 1562
-16 2366 -19 2891 l-4 527 42 5 c22 3 51 8 63 11 23 5 51 -34 151 -214 14 -25
44 -76 67 -115 52 -86 142 -239 166 -281 9 -17 63 -110 120 -205 56 -96 110
-187 119 -204 27 -46 683 -1163 717 -1221 17 -27 41 -70 55 -95 14 -24 62
-106 107 -181 44 -75 81 -145 81 -155 0 -10 -16 -72 -36 -138 -19 -66 -66
-223 -104 -350 -38 -126 -96 -322 -130 -435 -33 -113 -63 -212 -65 -220 -2 -8
-56 -190 -120 -405 -230 -770 -257 -860 -261 -875 -2 -8 -35 -121 -74 -250
-39 -129 -73 -242 -75 -250 -2 -8 -20 -69 -40 -135 -20 -66 -38 -128 -40 -137
-3 -13 9 -21 50 -32 29 -9 57 -16 62 -16 6 0 40 102 77 227 37 126 88 296 112
378 51 169 80 268 130 435 49 166 168 568 274 920 50 168 93 312 95 320 2 8
24 83 48 165 135 452 180 602 186 625 7 22 13 14 66 -75 33 -55 65 -109 71
-120 6 -11 71 -121 144 -245 73 -124 141 -241 152 -260 11 -19 58 -100 105
-180 47 -80 123 -208 168 -285 46 -77 160 -273 255 -435 95 -162 183 -312 196
-332 13 -21 24 -40 24 -43 0 -2 16 -29 35 -59 19 -30 35 -58 35 -61 0 -4 8
-19 19 -33 10 -15 43 -70 73 -122 31 -52 86 -147 123 -210 37 -63 77 -131 87
-150 11 -19 44 -75 73 -125 41 -68 55 -103 59 -145 6 -54 22 -185 31 -245 2
-16 7 -52 11 -80 3 -27 8 -59 10 -70 2 -11 7 -40 10 -65 3 -25 8 -47 11 -50 6
-6 814 -7 817 0 2 3 0 30 -5 60 -14 96 -53 430 -63 550 -37 410 -51 734 -51
1210 0 333 8 627 20 750 2 19 6 78 9 130 4 52 8 111 11 130 2 19 7 64 10 100
4 36 8 76 10 90 2 14 6 50 10 80 9 84 13 116 30 235 9 61 18 126 21 145 5 35
21 127 28 166 2 12 7 38 10 59 37 228 141 684 227 990 144 508 350 1072 545
1484 24 51 44 95 44 97 0 15 284 569 327 636 12 21 23 39 23 42 0 6 147 255
219 371 264 425 586 868 905 1245 44 52 83 97 86 100 3 3 39 43 80 90 41 47
101 114 134 150 97 105 574 579 660 655 44 39 93 83 110 98 17 16 121 104 231
196 528 443 1052 800 1695 1155 111 62 529 269 655 326 66 29 143 63 170 76
345 154 868 339 1305 463 162 45 431 114 490 125 14 2 55 11 91 20 37 8 79 17
93 20 14 3 61 12 103 20 111 23 115 24 248 46 143 25 229 39 270 44 17 3 50 7
75 11 64 9 88 13 150 20 30 4 66 8 80 10 14 2 54 7 90 10 36 3 81 7 100 10 57
7 139 14 240 21 52 4 113 8 135 9 346 24 1025 24 1325 0 25 -2 88 -6 140 -10
52 -3 113 -8 135 -10 207 -20 431 -46 525 -60 14 -2 45 -7 70 -10 52 -7 153
-23 190 -30 14 -2 63 -11 110 -19 247 -44 499 -97 715 -152 55 -14 107 -27
115 -29 26 -6 200 -56 338 -96 393 -117 888 -300 1237 -458 39 -18 102 -46
140 -64 250 -113 823 -420 1045 -560 329 -207 558 -362 795 -540 203 -152 602
-477 693 -564 10 -10 63 -58 118 -108 108 -97 497 -484 609 -605 190 -205 425
-482 606 -716 707 -913 1259 -1943 1623 -3026 125 -373 280 -941 319 -1173 3
-16 14 -73 25 -125 11 -52 23 -115 27 -140 4 -24 8 -47 10 -50 2 -4 7 -31 20
-125 2 -11 8 -47 14 -80 5 -33 13 -80 16 -105 3 -25 8 -56 10 -70 9 -63 15
-108 19 -145 13 -115 18 -152 21 -175 2 -14 6 -56 10 -95 3 -38 8 -90 10 -115
3 -25 7 -83 10 -130 3 -47 8 -101 10 -120 24 -226 25 -906 0 -1280 -11 -165
-42 -490 -65 -680 -5 -41 -12 -97 -15 -125 -4 -27 -8 -61 -10 -75 -2 -14 -9
-61 -15 -105 -6 -44 -14 -93 -17 -110 -5 -33 -7 -46 -17 -121 l-7 -50 427 2
c235 2 430 6 435 11 4 4 10 33 14 63 3 30 8 62 10 70 2 8 7 38 10 65 3 28 7
61 10 75 5 25 33 262 37 313 3 30 -12 22 293 167 66 32 176 85 245 118 143 68
304 145 435 207 90 42 216 103 435 207 63 31 158 76 210 101 52 25 162 77 244
116 82 39 152 71 157 71 5 0 9 -6 9 -13 0 -21 40 -90 74 -125 17 -19 54 -46
81 -60 67 -35 188 -37 252 -5 l41 20 208 -261 c115 -143 213 -266 219 -272 5
-6 21 -26 35 -44 26 -34 172 -218 227 -286 17 -21 62 -77 100 -124 37 -47 75
-94 85 -104 10 -11 18 -23 18 -28 0 -15 25 -7 53 18 l29 24 -214 268 c-117
147 -220 275 -228 286 -8 10 -20 23 -25 30 -6 6 -32 39 -58 73 -26 34 -53 68
-60 75 -6 7 -24 29 -39 50 -15 20 -33 42 -40 50 -7 7 -47 56 -88 108 -77 98
-91 114 -132 164 l-25 30 23 34 c73 107 58 267 -33 363 l-34 36 44 169 c25 93
48 180 52 194 3 14 21 81 40 150 18 69 47 179 65 245 17 66 33 127 35 135 2 8
20 76 40 150 37 137 42 156 51 199 3 14 7 28 10 33 3 4 7 16 9 25 1 10 10 43
19 74 9 31 18 65 20 75 2 11 15 62 29 114 14 52 35 131 47 175 73 278 140 529
192 723 32 122 61 231 63 242 2 11 6 24 9 28 3 5 7 19 9 33 3 13 19 76 36 139
41 155 61 232 66 250 2 8 20 76 40 150 20 74 38 142 40 150 2 8 13 51 25 95
12 44 23 85 24 90 17 70 42 155 46 155 3 0 6 -111 7 -248 1 -226 7 -671 18
-1467 2 -165 7 -491 10 -725 3 -234 8 -580 10 -770 3 -190 7 -502 10 -695 4
-292 12 -870 19 -1335 l1 -105 85 0 85 0 -2 185 c0 102 -4 394 -8 650 -3 256
-8 596 -10 755 -2 160 -7 479 -10 710 -3 231 -8 562 -10 735 -2 173 -7 504
-10 735 -3 231 -7 555 -10 720 -2 165 -7 507 -10 760 -4 253 -7 500 -8 548
l-2 88 32 19 c40 24 98 101 118 159 31 90 12 210 -45 288 -54 73 -166 132
-250 131 -14 0 -30 0 -37 1 -6 0 -33 34 -60 74 -53 79 -172 251 -453 657 -101
146 -241 348 -311 450 -70 102 -194 281 -276 399 -81 118 -183 265 -226 328
-111 161 -378 547 -427 618 -23 33 -133 193 -245 355 -112 162 -207 300 -212
305 -4 6 -28 39 -52 75 -46 68 -122 178 -254 370 -44 63 -109 158 -145 210
-36 52 -100 145 -142 205 -89 128 -155 224 -373 540 -87 127 -165 239 -173
250 -8 11 -93 135 -190 275 -96 140 -191 278 -210 305 -20 28 -76 109 -124
180 -49 72 -93 135 -97 140 -5 6 -69 98 -143 205 -73 107 -148 215 -165 240
-17 25 -58 83 -90 130 -33 47 -79 114 -104 150 -25 36 -74 108 -110 160 -36
53 -133 193 -216 313 -82 119 -180 261 -218 315 -134 193 -158 232 -152 242 3
5 9 38 12 72 25 298 -239 532 -533 472 -69 -14 -143 -49 -193 -92 l-35 -29
-55 18 c-31 9 -135 42 -231 72 -96 31 -362 114 -590 186 -228 71 -611 191
-850 266 -239 75 -545 170 -680 212 -135 41 -254 79 -265 84 -11 4 -87 29
-170 54 -159 49 -391 122 -670 210 -289 91 -999 314 -1220 382 -115 35 -217
67 -225 70 -8 4 -17 7 -20 8 -21 6 -231 71 -465 145 -364 115 -759 239 -960
302 -88 27 -200 62 -250 78 -166 52 -610 191 -625 195 -8 3 -91 29 -185 58
-93 30 -267 85 -385 122 -118 37 -305 95 -414 130 l-200 63 -17 51 c-33 96
-113 178 -204 208 -45 15 -144 14 -192 -1z m540 -480 c156 -49 996 -312 1397
-438 140 -44 296 -93 345 -108 50 -16 293 -92 540 -170 248 -78 477 -150 510
-160 49 -15 529 -165 990 -310 535 -168 974 -306 1035 -325 41 -13 271 -85
510 -160 418 -131 496 -156 668 -209 42 -13 201 -63 352 -111 151 -47 345
-108 430 -135 855 -267 871 -273 1085 -340 52 -16 139 -44 193 -61 53 -17 116
-36 140 -42 33 -8 41 -14 36 -26 -3 -9 -8 -33 -11 -53 -3 -21 -8 -38 -12 -38
-19 -2 -754 -12 -1701 -25 -179 -2 -509 -7 -735 -10 -225 -3 -570 -8 -765 -10
-195 -3 -530 -7 -745 -10 -214 -3 -543 -8 -730 -10 -820 -11 -1245 -16 -1599
-18 l-380 -2 -142 230 c-78 127 -207 336 -287 465 -79 129 -179 291 -222 360
-43 69 -119 193 -170 275 -50 83 -217 353 -370 600 -153 248 -289 468 -302
490 -13 22 -69 112 -123 200 -94 151 -114 195 -89 195 6 0 74 -20 152 -44z
m-863 -66 c-14 -12 -61 -46 -105 -78 -44 -31 -87 -62 -95 -69 -17 -14 -421
-308 -590 -429 -63 -46 -263 -192 -445 -324 -181 -133 -413 -302 -515 -376
-102 -73 -268 -195 -370 -269 -102 -75 -196 -143 -210 -153 -34 -23 -134 -96
-140 -102 -3 -3 -86 -63 -185 -134 -99 -71 -182 -132 -185 -135 -3 -4 -36 -29
-75 -56 -38 -27 -82 -58 -96 -69 -14 -12 -36 -28 -49 -36 -23 -15 -116 -83
-275 -200 -49 -36 -218 -159 -375 -273 -157 -114 -467 -339 -689 -501 -223
-162 -409 -292 -415 -291 -6 2 -108 25 -226 50 -118 25 -233 50 -255 55 -22 5
-93 21 -157 35 -123 26 -205 44 -553 120 -115 25 -219 47 -230 49 -11 3 -93
21 -182 40 -89 20 -177 38 -195 41 -18 3 -41 8 -50 11 -9 3 -25 7 -35 9 -10 2
-72 15 -138 30 -66 14 -183 40 -260 56 -77 17 -147 32 -155 34 -8 2 -71 15
-140 30 -69 14 -141 30 -160 35 -19 5 -46 11 -60 14 -20 3 -186 39 -345 73
-37 8 -34 8 -70 16 -16 4 -39 9 -50 11 -11 3 -41 9 -68 15 -26 6 -64 14 -85
17 -51 8 -53 10 -51 52 1 20 -1 60 -5 88 l-7 50 68 21 c64 20 471 146 753 235
69 21 132 40 140 42 8 2 110 34 225 71 116 36 217 68 225 70 21 5 129 38 225
68 44 14 145 46 225 70 80 25 219 69 310 97 91 29 192 60 225 70 33 10 395
122 805 250 410 127 801 249 870 270 69 21 229 71 355 110 127 40 264 82 305
95 220 68 930 289 1005 313 28 8 55 16 60 18 8 2 636 196 820 254 33 11 200
62 370 115 171 53 373 116 450 140 351 110 471 147 480 149 16 4 185 56 235
73 25 8 52 16 60 18 8 2 33 10 55 19 53 19 54 19 25 -4z m675 -132 c39 -62 77
-125 85 -139 18 -32 390 -635 435 -704 38 -60 556 -898 570 -923 6 -10 24 -40
41 -67 17 -28 105 -169 194 -315 89 -146 173 -281 185 -300 57 -88 76 -122 70
-128 -4 -4 -77 -7 -163 -8 -86 -1 -382 -5 -657 -9 -275 -3 -621 -7 -769 -8
l-269 -2 -4 29 c-8 59 -72 140 -120 152 -24 7 -25 8 -18 83 3 42 8 101 11 131
2 30 6 80 9 110 2 30 7 87 10 125 3 39 8 88 10 110 3 22 7 76 10 120 3 44 8
100 10 125 3 25 7 81 10 125 3 44 8 96 10 115 2 19 7 69 10 110 3 41 8 100 10
130 3 30 7 87 10 125 3 39 8 90 10 115 2 25 7 81 10 125 3 44 8 96 10 115 2
19 7 73 11 120 3 47 7 101 9 120 2 19 6 76 10 125 4 50 8 101 10 115 2 14 6
70 10 125 4 55 10 102 14 105 3 3 32 14 64 25 32 10 60 22 63 27 11 17 21 5
89 -104z m-622 35 c-88 -103 -287 -338 -328 -387 -22 -27 -48 -58 -59 -70 -10
-11 -37 -43 -60 -70 -22 -27 -72 -86 -111 -131 -38 -45 -216 -254 -395 -465
-179 -211 -332 -391 -340 -400 -8 -9 -32 -37 -53 -63 -21 -25 -43 -52 -50 -59
-7 -7 -87 -101 -177 -208 -91 -107 -192 -227 -225 -265 -33 -39 -94 -111 -135
-159 -70 -84 -127 -151 -189 -221 -14 -17 -60 -71 -101 -120 -41 -50 -77 -92
-80 -95 -6 -6 -105 -122 -135 -159 -11 -14 -36 -43 -56 -65 -19 -23 -122 -144
-229 -269 -179 -212 -195 -228 -219 -222 -14 4 -50 10 -79 14 -184 26 -383
-65 -484 -221 -17 -27 -36 -48 -42 -48 -6 0 -40 7 -76 15 -84 20 -518 114
-550 120 -14 2 -77 16 -140 30 -63 14 -135 30 -160 35 -25 5 -54 11 -65 14
-11 3 -56 12 -100 21 -44 9 -83 20 -86 23 -4 4 247 192 558 417 310 226 572
416 581 423 9 7 73 53 142 103 69 50 136 99 150 109 35 26 158 116 203 148 21
15 50 36 65 47 14 11 87 64 162 118 74 54 148 108 164 120 16 12 106 78 201
147 170 122 1382 1005 1660 1208 77 56 259 189 405 294 146 106 283 206 306
223 22 16 51 38 65 47 13 10 42 31 64 48 22 16 42 30 43 30 2 0 -18 -26 -45
-57z m310 -4 c-4 -60 -15 -208 -19 -244 -2 -22 -6 -71 -9 -110 -8 -101 -15
-183 -20 -240 -9 -102 -15 -172 -20 -235 -5 -62 -9 -116 -20 -240 -5 -61 -14
-166 -20 -250 -3 -30 -7 -84 -10 -120 -3 -36 -8 -90 -10 -120 -3 -30 -7 -81
-10 -114 -3 -32 -8 -92 -11 -135 -3 -42 -7 -92 -9 -111 -2 -19 -6 -75 -9 -125
-4 -49 -9 -103 -11 -120 -4 -26 -15 -159 -19 -232 -2 -28 -11 -36 -64 -57 -77
-30 -125 -99 -127 -184 l-1 -53 -114 -50 c-63 -27 -124 -53 -135 -59 -11 -5
-211 -91 -445 -190 -234 -100 -443 -190 -465 -200 -22 -9 -242 -104 -490 -210
-247 -106 -468 -200 -490 -210 -72 -33 -374 -160 -378 -160 -2 0 -9 17 -15 38
-17 55 -81 150 -136 200 l-47 43 33 38 c18 21 44 51 57 67 26 31 119 141 136
160 6 6 30 36 55 65 25 29 83 99 130 154 235 275 528 620 648 763 21 24 46 54
57 66 11 13 29 34 40 47 59 70 300 355 305 359 7 6 373 438 414 489 17 20 46
54 65 76 20 22 56 65 81 95 25 30 77 91 115 135 39 45 140 164 225 265 85 101
160 188 165 194 6 6 57 67 115 136 58 69 115 136 126 150 23 26 127 148 202
237 l44 50 46 -16 c40 -14 47 -21 45 -42z m8707 -2613 c-3 -2 -104 -45 -225
-96 -701 -294 -1154 -483 -1180 -495 -16 -7 -86 -36 -155 -65 -69 -29 -138
-58 -155 -65 -16 -7 -57 -24 -90 -38 -75 -32 -830 -348 -1280 -537 -458 -192
-547 -229 -570 -240 -11 -5 -189 -79 -395 -165 -206 -86 -388 -162 -405 -170
-16 -7 -59 -25 -95 -40 -36 -15 -80 -34 -97 -42 -18 -8 -43 -15 -55 -15 -13 0
-140 40 -283 89 -143 49 -318 106 -390 127 -71 21 -154 45 -183 54 l-52 16
-244 395 c-134 218 -355 576 -490 795 -136 219 -244 401 -242 404 3 2 112 6
243 7 131 2 441 6 688 10 470 6 798 11 1525 20 239 3 575 7 745 10 171 3 508
7 750 10 242 3 566 8 720 10 154 2 507 7 785 10 278 4 506 7 507 8 1 1 142 3
314 5 172 1 311 1 309 -2z m-6717 -139 c19 -28 132 -212 252 -407 120 -195
274 -444 342 -553 68 -109 123 -200 123 -203 0 -3 5 -10 10 -17 14 -16 90
-136 90 -142 0 -2 22 -39 50 -81 27 -43 48 -80 45 -82 -2 -2 -59 10 -127 26
-143 36 -365 84 -493 108 -54 10 -105 26 -128 41 -21 13 -52 32 -70 42 -18 10
-111 67 -207 126 -257 158 -424 261 -552 339 -62 38 -252 155 -423 259 -170
105 -391 240 -490 300 -99 60 -196 120 -215 132 -19 12 -70 43 -112 69 -43 26
-75 53 -72 59 3 8 48 12 152 13 376 4 1166 15 1168 17 1 1 142 3 313 4 l310 3
34 -53z m-10513 -48 c80 -17 174 -38 210 -46 36 -8 76 -17 90 -19 14 -3 45
-10 70 -15 25 -6 56 -13 70 -15 14 -3 54 -12 90 -20 35 -8 98 -22 140 -30 41
-9 83 -18 93 -20 9 -2 25 -6 35 -8 9 -2 73 -16 142 -31 69 -15 154 -33 190
-41 36 -8 115 -25 175 -38 61 -14 142 -31 180 -40 39 -8 82 -17 95 -20 43 -8
353 -76 395 -86 22 -5 51 -12 65 -14 21 -3 187 -39 290 -62 14 -3 32 -7 40 -9
8 -2 59 -13 114 -25 54 -12 106 -23 115 -25 9 -2 68 -14 131 -29 140 -31 428
-93 453 -98 10 -2 17 -7 16 -13 -2 -5 -91 -74 -198 -153 -1235 -899 -1242
-904 -1259 -889 -37 32 -142 49 -190 30 -20 -8 -105 74 -887 856 -799 800
-863 867 -849 883 9 9 21 15 27 12 7 -2 77 -18 157 -35z m8195 11 c57 -63 148
-82 228 -48 25 11 52 18 59 14 16 -7 -22 16 568 -346 264 -162 493 -302 508
-311 15 -9 106 -65 202 -124 628 -387 609 -376 663 -405 44 -24 48 -34 10 -26
-39 8 -80 14 -135 20 -26 3 -58 8 -70 10 -24 6 -38 8 -178 26 -139 18 -152 19
-215 25 -33 3 -71 8 -85 10 -14 2 -56 7 -95 10 -38 3 -86 7 -105 10 -19 2 -78
7 -130 10 -52 4 -115 8 -140 10 -316 24 -1060 24 -1375 0 -27 -3 -95 -7 -150
-11 -54 -3 -108 -8 -119 -10 -10 -2 -58 -6 -105 -9 -47 -3 -97 -8 -111 -10
-14 -2 -50 -7 -80 -10 -51 -5 -247 -31 -313 -40 -15 -2 -47 -7 -70 -10 -23 -3
-67 -10 -97 -15 -30 -5 -77 -12 -104 -15 -27 -3 -52 -8 -56 -10 -3 -2 -26 -6
-50 -10 -195 -27 -795 -164 -1115 -254 -120 -34 -136 -36 -110 -18 130 92 215
259 211 410 l-2 55 51 22 c80 35 87 38 138 60 26 11 127 55 225 96 97 41 195
83 217 93 22 10 101 44 175 75 74 32 149 63 165 71 17 7 163 70 325 140 162
70 309 133 325 140 37 16 313 134 625 267 129 55 246 106 260 114 33 18 34 18
55 -6z m9133 -66 c18 -24 53 -59 78 -78 33 -25 41 -37 32 -43 -8 -4 -60 -61
-116 -126 -57 -65 -116 -133 -131 -150 -79 -90 -132 -149 -186 -211 -33 -38
-65 -74 -70 -80 -6 -6 -39 -45 -75 -86 -36 -41 -68 -77 -71 -80 -7 -6 -216
-244 -250 -284 -13 -16 -45 -52 -70 -80 -25 -28 -59 -66 -76 -85 -28 -32 -31
-33 -63 -23 -88 31 -190 -1 -241 -74 -16 -24 -32 -56 -35 -72 -3 -16 -11 -29
-17 -29 -24 -1 -193 -14 -242 -18 -54 -5 -117 -11 -235 -20 -41 -3 -93 -8
-115 -10 -22 -3 -76 -7 -120 -10 -92 -7 -155 -12 -240 -20 -93 -9 -153 -14
-240 -20 -44 -4 -98 -9 -120 -11 -22 -2 -71 -6 -110 -9 -38 -3 -90 -7 -115
-10 -25 -2 -79 -7 -120 -10 -41 -3 -100 -8 -130 -11 -30 -3 -84 -7 -120 -10
-101 -7 -181 -14 -230 -19 -25 -2 -79 -7 -120 -10 -41 -3 -95 -7 -120 -10 -25
-2 -79 -7 -120 -10 -41 -3 -91 -8 -110 -10 -31 -4 -92 -9 -241 -20 -101 -7
-196 -16 -234 -20 l-40 -5 40 20 c52 25 49 24 600 255 259 108 490 206 515
216 25 11 54 24 65 29 11 5 270 113 575 240 305 128 569 238 585 245 17 8 86
37 155 65 69 29 139 58 155 65 17 7 71 30 120 50 50 21 119 50 155 65 36 16
191 81 345 145 154 64 348 145 430 180 83 35 157 65 165 69 8 3 114 48 235 99
185 79 222 92 230 80 6 -9 25 -35 43 -59z m-17918 -4 c23 -12 49 64 -227 -655
-19 -49 -59 -155 -89 -235 -31 -80 -60 -154 -65 -165 -5 -11 -20 -51 -34 -90
-14 -38 -30 -79 -34 -90 -5 -11 -23 -56 -39 -100 -17 -44 -94 -246 -172 -450
-78 -203 -159 -415 -180 -470 -21 -55 -120 -314 -220 -575 -299 -782 -481
-1256 -697 -1820 -112 -294 -220 -575 -239 -625 -19 -49 -44 -112 -54 -140
-11 -27 -35 -90 -54 -140 -91 -238 -402 -1049 -427 -1115 -106 -281 -129 -335
-140 -332 -172 43 -296 -2 -371 -135 -16 -29 -37 -54 -46 -55 -10 0 -28 -2
-42 -3 -14 -2 -43 -5 -65 -8 -22 -4 -65 -9 -95 -12 -30 -3 -71 -8 -90 -10 -19
-2 -60 -7 -90 -10 -52 -5 -72 -8 -180 -21 -70 -8 -111 -13 -170 -19 -30 -3
-66 -8 -80 -10 -14 -2 -56 -7 -95 -11 -38 -3 -77 -8 -85 -9 -8 -2 -44 -6 -80
-9 -36 -4 -96 -11 -135 -16 -38 -5 -98 -12 -132 -15 -34 -3 -70 -7 -80 -9 -10
-2 -49 -7 -88 -10 -38 -4 -81 -9 -95 -11 -14 -2 -52 -6 -85 -10 -33 -4 -73 -8
-90 -10 -32 -4 -84 -10 -175 -20 -55 -6 -55 -6 -74 29 -10 19 -26 43 -35 53
-43 49 -45 52 -29 71 15 16 936 1316 1047 1477 31 44 61 87 68 95 7 8 98 137
202 285 104 149 194 275 198 280 5 6 56 78 114 160 180 256 740 1047 779 1100
20 28 119 167 220 310 101 143 198 280 215 305 18 25 83 117 145 205 62 88
126 178 143 200 16 22 127 180 247 350 347 492 384 544 402 567 9 13 87 122
172 243 85 121 168 238 184 260 23 31 691 974 814 1150 16 22 51 72 78 110 27
39 66 94 86 123 40 57 38 56 64 42z m1199 -871 l846 -846 -23 -45 c-12 -24
-24 -60 -26 -79 -5 -50 20 -123 53 -155 l30 -29 -41 -45 c-39 -43 -112 -121
-419 -451 -19 -20 -74 -80 -124 -134 -49 -53 -106 -114 -125 -134 -19 -21 -82
-89 -140 -151 -58 -62 -133 -143 -166 -179 -34 -36 -76 -82 -94 -101 -18 -19
-85 -91 -149 -159 -64 -68 -124 -133 -134 -144 -16 -19 -205 -222 -287 -309
-19 -20 -73 -78 -120 -129 -47 -51 -111 -120 -143 -153 l-57 -61 5 435 c3 239
7 593 10 785 3 193 7 537 10 765 3 228 7 561 10 740 4 305 16 1231 17 1330 1
65 10 77 67 85 27 4 64 14 83 24 30 16 35 16 52 2 10 -9 399 -397 865 -862z
m17518 684 c133 -194 490 -712 550 -798 27 -38 74 -106 104 -150 30 -44 142
-206 249 -360 224 -325 288 -417 344 -500 23 -33 45 -64 49 -70 4 -5 134 -192
287 -415 154 -223 300 -434 325 -470 39 -57 241 -348 592 -857 56 -82 130
-188 164 -238 34 -49 193 -279 352 -510 160 -231 315 -456 346 -500 30 -44
133 -192 228 -330 95 -137 177 -257 183 -265 6 -8 88 -127 183 -265 95 -137
198 -286 228 -330 136 -196 463 -670 532 -770 222 -323 257 -375 253 -375 -4
0 -301 182 -416 255 -19 12 -63 40 -98 61 -35 22 -78 48 -95 59 -33 21 -372
230 -747 462 -118 73 -220 137 -227 143 -7 5 -14 10 -16 10 -3 0 -74 43 -158
95 -85 52 -178 110 -207 127 -29 18 -79 49 -110 69 -112 70 -457 284 -477 295
-11 6 -166 102 -345 213 -179 111 -448 277 -597 369 l-273 167 7 30 c24 96 -3
213 -62 277 -23 25 -117 95 -122 90 -2 -1 -15 1 -30 4 -27 6 -29 11 -72 187
-24 100 -47 193 -52 207 -9 29 -59 234 -65 270 -3 14 -9 36 -14 50 -7 20 -53
203 -65 260 -2 8 -11 44 -20 80 -9 36 -18 72 -20 81 -5 24 -44 178 -54 214 -8
27 -36 139 -47 187 -2 10 -6 26 -9 36 -23 90 -48 193 -52 217 -3 17 -8 37 -13
45 -4 8 -11 33 -15 55 -12 60 -68 285 -85 340 -7 25 -29 113 -45 185 -2 8 -20
80 -40 160 -20 80 -38 152 -40 160 -2 8 -38 152 -80 320 -42 168 -78 312 -80
320 -2 8 -38 152 -80 320 -42 168 -78 312 -80 320 -5 26 -85 343 -96 385 -6
22 -13 49 -15 60 -2 11 -10 45 -18 75 -14 55 -14 55 12 83 21 22 28 25 39 15
7 -7 56 -77 110 -155z m-238 2 c6 -27 13 -57 15 -65 2 -8 23 -89 45 -180 23
-91 49 -192 57 -224 9 -32 18 -71 20 -85 3 -14 9 -39 15 -56 8 -26 153 -605
164 -660 3 -11 39 -155 81 -320 41 -165 77 -309 80 -321 2 -11 15 -65 30 -120
14 -54 30 -117 35 -139 5 -22 14 -58 20 -80 10 -39 21 -84 33 -134 17 -73 49
-200 57 -226 10 -32 296 -1187 309 -1245 4 -19 40 -162 79 -317 39 -155 71
-286 71 -292 0 -6 -5 -11 -11 -11 -5 0 -35 -12 -64 -26 -51 -24 -79 -47 -122
-102 l-18 -23 -175 74 c-96 41 -353 150 -570 242 -217 92 -413 175 -435 185
-22 10 -96 41 -165 70 -69 28 -138 58 -155 65 -16 8 -59 26 -95 40 -36 15 -83
35 -105 45 -22 10 -67 29 -100 43 -78 32 -651 275 -690 292 -16 8 -47 21 -68
29 l-37 15 5 73 c2 40 7 102 10 138 6 73 11 153 20 285 3 50 8 117 10 150 4
57 9 130 20 290 2 39 7 99 9 135 3 36 8 103 11 150 3 47 8 114 10 150 3 36 7
103 10 150 5 89 10 160 21 300 3 47 7 101 9 120 1 19 3 38 4 41 0 3 21 19 46
35 65 40 100 114 92 190 -3 31 -13 66 -22 80 -17 26 -11 46 22 75 10 9 27 27
37 40 18 22 117 135 187 214 15 17 66 75 114 130 48 55 104 118 124 140 20 22
63 72 96 110 33 39 63 72 66 75 3 3 57 64 119 135 63 72 119 135 124 141 6 6
30 33 53 60 22 27 65 75 95 107 l53 58 40 -14 c53 -18 167 -13 235 10 30 11
58 17 61 14 4 -4 12 -28 18 -56z m-18433 -153 c-2 -4 -7 -219 -10 -477 -4
-259 -9 -630 -11 -825 -3 -195 -7 -519 -10 -720 -6 -507 -22 -1767 -25 -1885
0 -23 -18 -49 -81 -115 -44 -47 -96 -103 -116 -125 -30 -34 -214 -231 -293
-315 -14 -14 -70 -75 -125 -134 -55 -60 -116 -125 -135 -146 -98 -105 -241
-259 -266 -286 -16 -17 -72 -77 -124 -133 -52 -57 -106 -115 -120 -130 -14
-15 -80 -86 -148 -158 -68 -72 -131 -140 -141 -152 -15 -17 -108 -118 -253
-273 -18 -19 -78 -83 -133 -143 -55 -59 -113 -122 -130 -139 -16 -18 -75 -81
-130 -141 -55 -59 -118 -127 -140 -150 -22 -23 -64 -68 -94 -100 -60 -66 -60
-66 5 101 24 61 44 115 44 120 1 5 9 27 20 49 11 22 19 43 20 47 0 4 20 58 44
120 68 176 207 536 231 603 34 92 564 1477 574 1500 5 11 27 67 49 125 52 135
423 1107 468 1225 19 50 43 113 54 140 166 433 381 996 416 1090 25 66 49 129
54 140 6 11 32 81 60 155 28 74 55 144 59 155 11 24 92 235 155 401 25 67 50
132 55 145 6 13 44 113 86 223 77 203 83 216 91 216 3 0 3 -3 0 -8z m3967
-347 c34 -7 170 -36 302 -65 132 -29 245 -53 250 -54 53 -11 89 -19 140 -31
33 -8 71 -16 85 -19 24 -4 332 -71 395 -85 l30 -7 -2 -80 c-1 -44 2 -96 6
-116 9 -40 12 -38 -73 -54 -17 -3 -136 -27 -265 -54 -186 -38 -468 -96 -611
-125 -8 -2 -125 -26 -261 -53 -135 -28 -261 -54 -280 -57 -18 -3 -50 -10 -69
-15 -19 -5 -46 -11 -60 -14 -14 -2 -83 -16 -155 -31 -71 -14 -141 -28 -155
-31 -14 -3 -68 -14 -120 -25 -52 -11 -106 -22 -120 -25 -63 -12 -177 -35 -195
-39 -28 -6 -216 -46 -240 -51 -100 -20 -124 -24 -150 -28 l-30 -5 29 22 c16
12 48 36 72 52 39 28 612 445 1047 763 289 211 349 252 359 246 5 -3 37 -12
71 -19z m1267 -626 c7 -16 11 -31 9 -33 -7 -6 -172 -131 -681 -514 -416 -313
-528 -393 -625 -443 -151 -79 -450 -246 -485 -270 -14 -11 -28 -19 -31 -19 -3
0 -52 -28 -109 -63 -322 -198 -592 -378 -853 -572 -62 -45 -112 -77 -112 -71
-1 6 -4 34 -7 61 -3 28 -8 82 -11 120 -3 39 -7 81 -9 95 -3 14 -7 59 -11 100
-3 41 -8 93 -10 115 -2 22 -7 69 -10 105 -9 111 -16 184 -20 209 -3 14 -7 63
-10 110 -4 47 -8 96 -10 108 -2 12 -6 57 -10 100 -4 43 -8 85 -11 94 -3 11 6
22 28 32 63 30 108 93 116 162 2 22 5 40 6 41 0 0 105 22 231 48 285 59 265
55 295 61 14 3 36 7 50 10 14 3 115 23 225 46 110 23 209 43 220 45 11 2 97
20 190 39 94 20 224 47 290 60 97 19 286 58 630 130 11 2 45 9 75 14 82 16 88
18 175 35 44 9 96 21 115 26 19 5 53 11 75 15 22 3 67 12 100 19 33 8 78 17
99 20 22 4 42 9 44 11 9 8 29 -15 42 -46z m91 -116 c48 -58 209 -129 304 -134
56 -3 48 -11 -35 -37 -248 -77 -743 -270 -1045 -407 -90 -41 -90 -41 20 41 95
70 94 70 122 92 12 9 32 25 45 34 13 10 145 109 293 222 149 113 273 205 276
205 4 1 13 -7 20 -16z m11293 -195 c20 -42 85 -92 136 -103 26 -6 28 -9 25
-53 -2 -26 -6 -94 -10 -152 -3 -58 -8 -125 -10 -150 -2 -25 -6 -85 -10 -135
-5 -84 -9 -137 -20 -295 -2 -36 -7 -105 -10 -155 -3 -49 -8 -119 -10 -155 -3
-36 -7 -99 -10 -140 -3 -41 -7 -102 -10 -135 -8 -112 -17 -230 -20 -290 -8
-154 -18 -280 -21 -284 -2 -2 -119 45 -261 105 l-258 109 -200 151 c-261 196
-556 404 -574 404 -5 0 -11 3 -13 8 -5 13 -480 312 -496 312 -3 0 -13 6 -21
14 -9 7 -41 27 -71 43 -30 17 -111 62 -180 100 -284 160 -697 361 -1043 508
-75 32 -136 59 -135 61 4 3 96 12 198 19 41 3 95 8 120 10 25 3 74 7 110 10
36 3 90 7 120 10 30 3 82 7 115 10 166 13 213 17 245 20 19 2 73 7 120 10 47
3 101 8 120 10 19 2 71 7 115 10 44 4 96 8 115 10 19 2 73 6 120 10 47 3 101
7 120 10 19 2 76 7 125 11 50 4 104 8 120 9 17 2 64 6 105 9 41 4 95 8 120 11
25 2 79 7 120 10 41 3 100 8 130 11 30 3 82 7 115 9 64 5 142 12 240 20 33 3
87 8 120 11 33 2 80 7 105 9 25 3 85 7 135 11 49 3 91 6 92 7 1 1 14 3 30 4
24 1 31 -5 47 -39z m-14473 -482 c0 -17 2 -38 4 -46 2 -15 15 -146 20 -220 3
-40 14 -147 20 -200 2 -19 7 -68 10 -107 3 -40 8 -80 9 -90 2 -10 7 -58 10
-108 4 -49 9 -101 11 -115 2 -14 7 -56 10 -95 3 -38 7 -90 10 -115 2 -25 6
-74 9 -110 l6 -65 -146 -115 c-126 -99 -316 -257 -419 -349 -266 -236 -525
-485 -691 -664 -60 -65 -60 -63 21 108 31 66 66 140 77 165 12 25 47 101 79
169 33 68 59 125 59 127 0 2 22 50 49 106 27 57 65 137 84 178 88 190 242 522
272 585 18 39 77 165 130 280 54 116 116 248 138 295 22 47 55 119 74 160 101
221 126 268 139 263 8 -3 14 -19 15 -37z m-282 -293 c-28 -60 -93 -198 -144
-308 -51 -110 -112 -240 -135 -290 -23 -49 -82 -175 -130 -280 -48 -104 -108
-233 -133 -285 -86 -183 -120 -256 -179 -385 -74 -160 -104 -225 -158 -340
-23 -49 -54 -115 -68 -145 -106 -231 -162 -345 -177 -363 -20 -24 -192 -224
-234 -272 -26 -30 -166 -206 -272 -340 -30 -38 -88 -115 -128 -170 -41 -55
-78 -104 -82 -110 -9 -9 -2 855 10 1330 2 47 6 54 62 115 102 109 170 182 234
250 33 36 112 121 176 190 64 69 130 139 145 156 16 17 76 82 134 144 58 62
112 121 121 131 9 10 70 76 136 146 66 71 132 142 147 158 27 29 177 190 253
271 21 22 81 88 134 145 54 57 112 120 130 140 19 19 72 77 119 127 46 51 85
92 87 92 1 0 -21 -48 -48 -107z m14720 -1392 c54 -26 64 -40 52 -73 -5 -15
-12 -13 -46 20 -22 20 -56 50 -75 66 -31 25 -32 28 -10 21 14 -4 49 -20 79
-34z m198 -82 c26 -12 170 -73 318 -136 149 -63 284 -120 300 -128 17 -7 118
-50 225 -95 107 -45 209 -88 225 -95 17 -8 208 -89 425 -180 217 -92 472 -200
565 -240 94 -40 177 -75 185 -78 8 -4 -3 -5 -25 -2 -81 9 -141 16 -170 20 -16
3 -86 12 -155 20 -69 8 -143 17 -165 20 -22 3 -94 12 -160 20 -66 9 -140 18
-165 21 -25 3 -56 7 -70 9 -14 3 -47 7 -75 10 -45 5 -79 9 -155 20 -34 5 -104
13 -165 20 -27 3 -61 8 -75 10 -54 8 -107 15 -159 21 -30 3 -62 7 -72 9 -9 2
-143 129 -296 282 -153 153 -306 304 -340 336 -38 36 -60 64 -58 75 2 9 4 32
4 50 1 17 3 32 5 32 2 0 26 -9 53 -21z m-16843 -881 c-2 -189 -6 -507 -8 -706
l-5 -364 -129 -191 c-176 -261 -312 -480 -460 -742 -29 -49 -55 -95 -59 -102
-7 -10 -142 -37 -293 -58 -25 -3 -58 -9 -75 -11 -16 -3 -43 -7 -58 -9 -78 -11
-117 -17 -167 -25 -30 -5 -73 -12 -95 -15 -22 -4 -83 -13 -135 -21 -52 -8
-111 -17 -130 -20 -19 -3 -46 -7 -59 -9 -13 -2 -45 -7 -70 -11 -25 -4 -55 -8
-66 -10 -11 -2 -67 -11 -125 -19 -58 -9 -117 -18 -132 -20 -59 -10 -85 -14
-128 -20 -40 -5 -120 -18 -190 -31 -142 -25 -161 -12 -92 63 55 59 244 264
285 307 15 16 71 77 125 135 53 57 106 114 117 126 11 12 52 55 90 96 39 41
124 133 190 204 137 148 215 232 265 285 31 33 190 204 264 284 15 17 78 85
140 150 163 175 220 237 252 272 16 17 75 81 132 141 56 61 114 123 129 139
27 30 214 231 268 288 17 18 72 78 124 134 52 56 95 102 97 102 1 0 1 -154 -2
-342z m17646 17 c41 -4 77 -8 80 -10 3 -2 37 -6 75 -10 39 -3 77 -8 85 -10 8
-2 40 -7 70 -10 30 -3 66 -7 80 -10 14 -2 50 -7 80 -10 30 -4 66 -8 80 -10 14
-2 66 -9 115 -15 50 -6 104 -13 120 -15 17 -2 53 -7 80 -10 28 -3 61 -8 75
-10 14 -2 52 -6 85 -10 32 -4 68 -9 78 -11 11 -2 44 -6 73 -8 29 -3 64 -8 76
-10 13 -3 48 -8 79 -11 31 -3 65 -7 75 -9 11 -2 48 -7 84 -11 36 -4 72 -9 80
-10 8 -1 43 -6 78 -10 35 -4 62 -12 63 -18 9 -126 95 -237 211 -272 27 -8 53
-14 56 -14 4 1 21 1 38 0 31 -1 31 -2 152 -288 67 -159 129 -306 139 -328 9
-22 17 -42 18 -45 1 -3 6 -16 12 -30 6 -14 49 -115 96 -225 46 -110 115 -272
152 -360 37 -88 109 -259 160 -380 51 -121 148 -350 215 -510 67 -159 128
-303 135 -320 8 -16 66 -156 130 -310 64 -154 123 -293 130 -310 11 -24 141
-330 200 -473 l14 -33 -52 -23 c-29 -13 -86 -39 -127 -59 -41 -19 -127 -58
-190 -87 -63 -29 -158 -73 -210 -98 -52 -24 -117 -55 -143 -66 l-49 -22 -57
56 c-92 90 -212 140 -336 140 l-71 0 -43 138 c-49 155 -155 461 -208 597 -19
49 -46 119 -60 155 -13 36 -31 79 -38 95 -7 17 -36 86 -65 155 -151 358 -391
846 -560 1135 -25 44 -49 87 -53 95 -4 8 -17 32 -30 52 -12 20 -39 65 -60 100
-46 77 -38 64 -177 283 -181 284 -367 549 -610 864 -61 79 -375 460 -389 471
-16 13 -131 149 -131 154 0 4 3 5 8 3 4 -3 41 -8 82 -12z m2437 -523 c96 -59
226 -140 291 -180 64 -40 142 -87 172 -106 30 -18 109 -67 175 -108 66 -41
199 -123 295 -182 96 -59 191 -118 210 -130 34 -22 116 -73 705 -436 154 -95
296 -183 315 -195 19 -12 143 -89 275 -170 132 -81 274 -169 315 -195 41 -26
134 -83 205 -127 130 -79 540 -332 583 -359 20 -13 21 -17 8 -37 -36 -56 -49
-151 -32 -237 l6 -35 -142 -65 c-146 -66 -295 -134 -427 -197 -40 -19 -162
-75 -270 -125 -108 -50 -223 -103 -256 -118 -33 -15 -179 -83 -325 -150 -146
-67 -301 -139 -345 -160 -91 -43 -115 -54 -421 -195 -41 -19 -79 -35 -83 -35
-5 0 -16 21 -26 48 -10 26 -28 70 -41 97 -12 28 -64 149 -115 270 -50 121
-115 276 -144 345 -87 207 -320 760 -420 995 -51 121 -141 335 -200 475 -59
140 -113 269 -120 285 -8 17 -26 59 -40 95 -15 36 -63 151 -107 255 -44 105
-105 249 -135 320 -30 72 -58 139 -63 150 -6 11 -32 74 -60 139 l-50 120 33
32 c17 17 38 29 46 27 8 -2 93 -52 188 -111z m-20857 -1807 c0 -3 -56 -119
-124 -257 -364 -742 -654 -1541 -832 -2295 l-29 -122 -80 0 c-51 0 -103 -7
-142 -19 l-62 -20 -9 32 c-5 17 -15 51 -22 76 -7 25 -16 56 -21 70 -4 14 -17
61 -29 105 -32 121 -44 165 -95 345 -25 91 -48 174 -50 185 -3 11 -14 52 -25
90 -12 39 -23 77 -25 85 -3 13 -42 154 -62 225 -62 218 -273 993 -273 1001 0
6 13 17 30 24 54 22 126 118 143 191 7 28 -4 25 197 55 19 3 76 11 125 19 50
8 110 17 135 21 25 3 54 8 65 10 20 4 86 14 120 19 41 5 112 16 165 25 30 5
71 11 90 14 91 13 119 18 170 26 81 14 110 18 160 25 25 3 56 8 70 10 14 3 41
7 60 10 19 3 46 7 60 10 22 4 58 9 125 20 11 1 47 6 80 10 33 4 62 9 64 11 6
6 21 5 21 -1z m-2265 -337 c22 -56 88 -122 145 -147 28 -12 50 -23 50 -24 0
-1 -7 -24 -16 -52 -27 -90 -98 -327 -147 -495 -14 -47 -46 -155 -72 -240 -25
-85 -57 -193 -71 -240 -96 -327 -148 -496 -154 -503 -6 -7 -288 201 -1530
1130 -35 26 -71 53 -80 60 -8 7 -55 42 -105 79 -49 36 -92 68 -94 70 -2 2 1 9
6 16 16 20 51 122 46 135 -7 19 8 23 162 38 53 5 143 16 255 30 19 3 60 7 90
10 30 3 66 8 80 10 14 2 57 6 95 10 39 3 77 8 85 10 8 2 46 6 83 10 37 3 76 8
85 10 9 1 49 6 87 10 39 3 84 8 100 11 17 2 50 6 75 9 188 20 254 27 270 30 8
1 46 6 83 10 37 3 76 8 85 10 10 2 49 6 86 10 37 3 82 8 100 10 17 3 58 7 91
11 33 4 61 7 63 9 13 11 34 -5 47 -37z m329 -303 c9 -33 18 -67 21 -75 2 -8
31 -113 64 -233 34 -120 68 -241 75 -270 8 -29 33 -119 56 -202 23 -82 43
-157 46 -165 2 -8 22 -80 44 -160 23 -80 43 -154 45 -165 3 -11 14 -51 25 -90
12 -38 23 -77 25 -85 2 -8 44 -162 94 -342 l90 -327 -52 -50 -51 -49 -31 21
c-16 12 -234 174 -483 360 -361 270 -452 342 -447 355 4 9 13 37 20 62 15 53
285 962 318 1070 13 41 45 150 73 242 27 91 50 166 51 165 0 -1 9 -29 17 -62z
m26478 -220 c48 -22 82 -32 114 -34 14 -1 11 -179 -3 -206 -6 -11 -11 -23 -12
-28 -1 -15 -15 -69 -88 -342 -41 -154 -76 -287 -78 -296 -5 -23 -82 -316 -95
-359 -10 -34 -86 -319 -149 -560 -16 -63 -55 -209 -86 -325 -31 -115 -58 -219
-60 -230 -3 -11 -23 -87 -46 -170 -22 -82 -42 -157 -44 -165 -4 -18 -45 -176
-82 -310 -14 -52 -27 -102 -28 -110 -2 -8 -4 -16 -4 -17 -1 -2 -1 -5 -2 -8 0
-2 -5 -19 -10 -37 -6 -18 -21 -73 -34 -123 -13 -49 -33 -126 -45 -170 -12 -44
-23 -87 -25 -95 -2 -8 -34 -127 -70 -265 -37 -137 -69 -257 -70 -265 -3 -14
-27 -101 -41 -148 -4 -15 -12 -21 -21 -18 -8 3 -19 6 -24 6 -5 0 -9 6 -9 13 0
8 -6 27 -14 43 -8 16 -55 128 -106 249 -51 121 -98 235 -106 253 -8 17 -20 47
-28 65 -8 17 -123 291 -256 607 -133 316 -291 692 -352 835 -60 143 -132 314
-160 380 -27 66 -56 134 -63 150 -40 90 -265 629 -265 635 0 7 42 29 153 79
37 17 96 45 132 61 36 17 93 43 128 59 225 104 882 408 946 438 42 20 78 37
81 38 3 0 37 16 75 34 39 18 122 57 186 86 64 29 149 69 190 88 41 19 117 55
169 79 52 23 124 57 160 75 36 17 70 32 76 32 7 1 36 -10 66 -24z m-28227
-545 c385 -288 788 -589 895 -669 107 -79 198 -149 201 -153 5 -8 -25 -114
-116 -413 -74 -240 -215 -722 -215 -733 0 -7 -4 -11 -9 -8 -7 5 -148 238 -216
358 -5 10 -75 129 -155 264 -80 135 -156 265 -168 288 -13 22 -53 89 -88 148
-35 58 -64 109 -64 113 0 3 -8 18 -19 33 -10 15 -57 92 -104 172 -230 393
-432 738 -444 760 -8 14 -22 37 -31 52 -9 15 -50 84 -91 155 -41 70 -81 139
-90 153 -13 20 -13 23 -1 14 8 -6 330 -247 715 -534z m25785 -652 c23 -57 50
-121 60 -143 10 -22 34 -80 54 -130 21 -49 43 -103 51 -120 14 -31 548 -1298
687 -1630 43 -104 85 -203 93 -220 7 -16 43 -102 80 -190 37 -88 73 -173 80
-190 26 -58 174 -412 184 -437 9 -23 7 -27 -16 -33 -45 -11 -110 -63 -144
-115 -30 -47 -34 -50 -68 -46 -20 3 -74 7 -121 11 -47 3 -107 8 -135 10 -27 2
-90 7 -140 10 -49 4 -106 8 -125 10 -19 2 -75 6 -125 10 -49 3 -119 8 -155 11
-36 3 -90 7 -120 9 -99 7 -243 18 -395 30 -38 3 -99 8 -135 10 -36 3 -92 8
-125 10 -33 3 -94 8 -135 10 -147 9 -203 15 -209 21 -3 3 -7 52 -7 108 -4 218
-24 629 -39 791 -2 22 -7 72 -10 110 -4 39 -8 88 -11 110 -17 160 -27 239 -39
329 -12 86 -45 312 -49 332 -3 12 -7 39 -10 60 -7 40 -22 130 -31 174 -3 14
-10 50 -16 80 -18 93 -20 103 -24 110 -7 12 10 27 55 50 25 13 75 53 111 89
128 128 172 288 133 478 -7 35 -8 34 211 133 28 12 95 44 150 70 55 26 129 60
164 76 36 16 99 46 140 66 42 20 79 37 82 37 4 1 26 -45 49 -101z m-24087
-617 c423 -317 445 -335 436 -358 -33 -87 -27 -242 13 -337 60 -143 183 -255
326 -297 41 -12 43 -14 37 -46 -3 -19 -7 -53 -10 -76 -3 -23 -7 -55 -9 -72 -2
-16 -7 -61 -11 -100 -4 -38 -9 -78 -11 -87 -1 -9 -6 -57 -9 -105 -4 -48 -9
-96 -11 -105 -1 -10 -6 -64 -10 -120 -3 -57 -8 -123 -9 -148 -14 -191 -19
-405 -19 -705 0 -352 9 -614 29 -825 2 -25 7 -88 10 -140 l7 -95 -64 110 c-36
61 -95 162 -133 225 -37 63 -76 130 -87 149 -11 19 -135 231 -275 470 -141
240 -393 670 -561 956 -168 286 -331 564 -364 618 -32 55 -58 100 -58 102 0 1
-15 28 -34 59 -28 46 -33 62 -26 84 27 90 63 211 70 237 5 17 18 62 30 100 12
39 36 122 55 185 18 63 38 129 44 145 5 17 42 140 82 275 39 135 74 248 76
253 5 9 -44 45 486 -352z m23457 -2596 c30 -2 93 -7 140 -10 47 -3 108 -8 135
-10 28 -2 86 -7 130 -10 44 -4 100 -8 125 -10 25 -2 86 -6 135 -10 50 -3 108
-8 130 -10 22 -2 83 -7 135 -10 52 -4 111 -8 130 -10 19 -2 80 -6 135 -9 55
-4 116 -9 135 -11 37 -4 220 -18 258 -19 12 -1 22 -2 22 -3 0 -3 -91 -47 -285
-138 -49 -23 -151 -72 -225 -107 -74 -36 -169 -81 -210 -101 -41 -19 -155 -74
-254 -121 -98 -47 -179 -86 -181 -86 -1 0 -92 -43 -201 -96 -109 -53 -230
-111 -269 -129 -38 -18 -113 -53 -166 -79 -53 -25 -99 -46 -103 -46 -3 0 -4
10 -2 23 3 12 8 58 11 102 3 44 7 109 10 145 12 159 15 215 21 370 4 91 8 217
9 280 2 63 3 117 4 119 1 3 84 -2 231 -14z"/>
<path d="M14357 22654 c-1 -1 -63 -5 -137 -8 -171 -8 -339 -21 -415 -31 -99
-13 -132 -17 -145 -17 -8 0 -35 -4 -60 -8 -25 -5 -70 -11 -100 -15 -30 -3 -62
-8 -70 -10 -8 -3 -31 -7 -50 -9 -230 -29 -719 -141 -1105 -252 -222 -64 -547
-169 -590 -192 -28 -14 -64 -48 -66 -61 0 -3 -2 -16 -5 -29 -6 -32 34 -122 55
-122 9 0 81 18 161 41 151 42 375 99 495 125 39 9 77 17 85 19 45 11 164 35
192 40 18 3 53 9 78 15 25 5 83 16 130 24 95 17 105 19 245 41 55 9 111 18
125 20 14 2 50 7 80 10 30 3 66 8 80 10 40 6 100 14 160 20 30 3 71 8 90 10
55 6 150 16 205 20 28 2 86 6 130 10 239 18 507 28 805 28 242 0 588 -9 675
-18 22 -2 87 -7 145 -10 58 -3 119 -8 135 -10 17 -2 66 -7 110 -10 44 -4 94
-8 110 -10 17 -3 55 -7 85 -10 53 -5 81 -8 180 -21 25 -3 61 -7 80 -10 146
-18 443 -65 455 -71 7 -4 7 -3 0 4 -52 54 -422 201 -735 292 -89 25 -135 38
-250 65 -14 4 -156 34 -190 41 -8 1 -35 6 -60 10 -25 4 -54 9 -65 11 -52 10
-227 34 -290 39 -38 4 -86 9 -105 11 -91 11 -643 26 -653 18z"/>
<path d="M15847 22650 c4 -4 112 -51 238 -105 404 -170 1009 -426 1043 -441
76 -33 102 -44 197 -84 55 -23 114 -49 132 -57 18 -8 37 -13 42 -11 12 4 -56
140 -108 216 -73 107 -198 217 -301 264 -36 17 -128 38 -280 64 -47 8 -94 16
-105 18 -79 15 -146 26 -180 31 -23 3 -52 7 -65 10 -13 3 -40 7 -60 10 -20 3
-47 8 -60 10 -14 3 -42 7 -64 10 -40 5 -42 6 -181 29 -49 9 -108 18 -130 22
-22 3 -60 9 -83 14 -24 4 -40 4 -35 0z"/>
<path d="M17396 22367 c4 -7 24 -39 44 -72 20 -33 62 -103 93 -156 67 -115
115 -174 171 -212 36 -25 48 -28 92 -23 27 3 113 30 190 59 76 30 174 65 217
77 42 13 77 26 78 29 0 3 2 13 4 22 2 13 -14 22 -64 37 -36 11 -163 49 -281
85 -581 177 -552 169 -544 154z"/>
<path d="M14348 22195 c-2 -1 -91 -6 -198 -9 -107 -4 -217 -9 -245 -11 -27 -2
-88 -7 -135 -10 -180 -11 -386 -29 -475 -40 -16 -2 -58 -7 -93 -10 -35 -4 -71
-8 -80 -10 -9 -1 -42 -6 -72 -10 -30 -3 -66 -8 -80 -10 -14 -2 -45 -7 -70 -10
-56 -8 -90 -13 -160 -25 -30 -5 -73 -12 -95 -16 -58 -8 -302 -61 -425 -90
-101 -25 -384 -114 -425 -134 -11 -5 -46 -21 -79 -35 l-58 -25 16 -25 c9 -13
28 -46 42 -72 191 -347 452 -633 879 -964 182 -141 531 -382 597 -412 112 -52
195 -37 368 63 461 267 852 467 1305 665 129 56 378 155 570 225 113 41 453
155 495 166 8 2 53 15 100 29 47 14 164 46 260 71 96 24 200 51 230 59 120 32
515 111 650 131 19 3 60 9 90 15 30 5 73 12 94 16 22 3 57 10 79 17 l40 11
-66 44 c-114 74 -299 145 -532 205 -55 14 -118 28 -140 32 -22 3 -43 8 -46 10
-3 2 -21 6 -40 9 -19 3 -59 10 -89 17 -30 6 -64 12 -75 13 -11 1 -36 5 -55 8
-19 4 -53 9 -75 12 -22 3 -53 7 -70 10 -91 14 -323 39 -475 51 -47 4 -98 8
-115 9 -16 2 -82 6 -145 10 -63 4 -146 9 -185 11 -77 5 -1012 13 -1017 9z"/>
<path d="M11440 22030 c-8 -4 -73 -32 -145 -60 -326 -132 -424 -177 -745 -337
-475 -237 -749 -400 -1140 -680 -228 -162 -231 -168 -22 -46 41 24 75 43 77
43 2 0 30 15 62 34 255 148 777 402 1118 545 94 39 179 76 190 81 11 5 92 36
180 69 143 53 221 81 390 140 45 16 53 23 76 72 43 88 44 93 7 121 -21 16 -38
22 -48 18z"/>
<path d="M18448 21966 c-1 -2 -34 -6 -73 -9 -134 -10 -280 -62 -356 -127 l-34
-29 488 -1 c268 0 487 2 487 4 0 6 -69 47 -125 74 -75 35 -207 71 -288 77 -40
4 -77 8 -84 10 -6 2 -13 2 -15 1z"/>
<path d="M11465 21714 c-33 -8 -78 -21 -100 -29 -22 -8 -103 -37 -180 -64
-226 -80 -516 -197 -698 -280 -37 -17 -97 -45 -134 -62 -691 -315 -1570 -873
-2156 -1367 -213 -179 -299 -356 -292 -594 7 -225 120 -548 288 -825 223 -368
529 -715 953 -1083 156 -136 148 -129 342 -284 169 -135 220 -172 226 -165 7
9 122 155 133 169 30 38 218 266 223 270 3 3 44 50 91 105 129 149 210 241
284 320 21 22 62 67 93 100 310 336 877 873 1187 1123 38 31 76 63 84 70 69
66 533 422 771 592 148 106 594 406 614 413 6 2 9 7 6 10 -3 3 -92 64 -199
136 -316 215 -584 412 -706 521 -348 311 -572 585 -706 867 -20 43 -40 72 -49
72 -8 -1 -42 -7 -75 -15z"/>
<path d="M18527 21660 l-49 -5 64 -24 c386 -150 896 -388 1257 -588 75 -41
161 -89 191 -106 106 -58 332 -197 547 -336 384 -246 966 -692 1288 -987 11
-11 65 -59 120 -109 54 -49 178 -167 275 -262 l175 -172 23 22 c68 63 67 152
-1 222 -7 7 -55 59 -107 116 -182 201 -558 568 -756 740 -28 24 -79 69 -114
99 -183 158 -578 465 -780 605 -47 33 -93 67 -103 76 -9 9 -30 22 -45 30 -15
8 -29 17 -32 20 -10 13 -420 280 -567 370 -216 133 -513 242 -718 264 -16 2
-43 6 -60 9 -106 18 -498 29 -608 16z"/>
<path d="M17936 21641 l-50 -6 55 -46 c30 -26 144 -122 254 -214 247 -206 335
-286 541 -490 303 -300 567 -604 825 -950 82 -110 154 -205 159 -212 13 -16
260 -389 297 -448 61 -97 241 -401 273 -460 18 -33 36 -64 40 -70 4 -5 31 -55
60 -110 98 -186 112 -210 138 -237 13 -15 37 -31 51 -36 26 -9 112 -9 128 1 5
3 29 8 53 12 25 3 63 10 85 15 22 5 59 11 83 15 44 6 126 21 317 56 61 11 124
22 140 25 17 3 48 10 70 16 22 5 51 12 65 15 53 9 178 44 250 70 109 38 187
80 579 311 27 16 -213 286 -446 502 -73 68 -92 84 -208 186 -169 147 -596 476
-785 605 -36 24 -67 47 -70 50 -10 10 -396 267 -530 351 -453 285 -752 454
-1155 652 -467 231 -836 367 -1060 391 -103 11 -109 12 -159 6z"/>
<path d="M17524 21610 c-32 -17 -90 -54 -128 -83 -81 -59 -298 -227 -306 -236
-3 -3 -54 -48 -115 -100 -60 -52 -205 -190 -320 -305 -188 -189 -270 -276
-401 -426 -21 -25 -43 -50 -49 -56 -5 -7 -26 -31 -44 -54 -19 -23 -40 -48 -46
-54 -72 -75 -495 -626 -630 -821 -162 -234 -176 -255 -163 -260 7 -3 47 -13
88 -24 41 -11 110 -29 153 -40 42 -12 112 -30 155 -42 42 -11 149 -40 237 -64
88 -24 214 -57 280 -75 66 -17 143 -37 170 -45 28 -8 169 -47 315 -85 146 -39
297 -80 335 -90 39 -10 156 -42 260 -69 105 -28 206 -55 225 -61 68 -20 515
-138 535 -142 19 -3 20 2 17 137 -3 182 -12 476 -17 590 -10 236 -16 344 -19
385 -3 25 -7 90 -11 145 -3 55 -8 111 -10 125 -2 14 -6 54 -10 90 -11 125 -22
231 -30 290 -3 19 -7 57 -11 85 -3 27 -7 52 -9 55 -2 3 -6 32 -9 65 -4 33 -8
71 -11 85 -3 14 -7 39 -10 55 -3 17 -7 40 -9 51 -2 12 -7 37 -10 55 -5 34 -21
113 -31 159 -3 14 -8 41 -11 60 -3 19 -8 38 -10 41 -2 3 -6 20 -9 37 -20 113
-107 432 -145 531 -49 127 -91 146 -196 91z"/>
<path d="M17137 21564 c-1 -1 -24 -5 -52 -8 -44 -6 -84 -12 -190 -31 -34 -5
-68 -12 -105 -20 -14 -3 -34 -7 -45 -9 -11 -3 -63 -14 -115 -26 -52 -12 -102
-23 -110 -25 -165 -36 -675 -192 -999 -306 -121 -43 -534 -201 -586 -224 -17
-8 -42 -18 -56 -23 -24 -9 -202 -87 -309 -134 -216 -96 -568 -273 -690 -347
-19 -11 -42 -24 -50 -28 -73 -34 -381 -252 -377 -266 1 -4 40 -25 87 -46 94
-42 189 -86 295 -136 104 -49 228 -107 440 -205 105 -48 226 -105 270 -125 86
-40 168 -78 255 -117 263 -120 330 -148 356 -148 51 1 116 41 161 100 23 30
125 165 225 300 153 204 351 460 393 506 5 7 26 31 45 55 45 55 212 250 265
308 128 142 197 214 360 376 193 191 198 196 345 325 134 117 136 118 228 193
l84 68 -62 -3 c-34 -2 -62 -4 -63 -4z"/>
<path d="M17890 21445 c0 -4 9 -43 21 -88 31 -121 82 -367 113 -547 16 -88 42
-257 51 -320 3 -25 8 -56 10 -70 2 -14 7 -50 10 -80 3 -30 8 -66 10 -80 4 -27
12 -95 20 -175 10 -111 16 -172 20 -205 3 -19 7 -75 11 -125 3 -49 7 -106 9
-125 2 -19 6 -93 10 -165 3 -71 8 -150 10 -175 3 -39 10 -248 20 -587 3 -114
13 -138 84 -187 42 -30 67 -37 201 -61 205 -36 389 -55 665 -70 61 -3 135 -8
165 -10 30 -2 109 -7 175 -10 122 -6 192 -10 370 -20 55 -3 143 -7 195 -10
202 -8 345 -17 352 -21 22 -14 15 24 -15 78 -115 211 -199 365 -207 378 -5 8
-64 107 -132 220 -292 491 -598 919 -942 1320 -140 163 -184 209 -420 445
-261 260 -505 473 -768 669 -21 16 -38 25 -38 21z"/>
<path d="M13273 20025 c-55 -17 -102 -45 -318 -188 -211 -141 -552 -384 -665
-474 -8 -6 -80 -62 -160 -124 -420 -326 -760 -628 -1191 -1059 -286 -285 -407
-414 -644 -685 -38 -44 -72 -82 -75 -85 -5 -5 -202 -241 -291 -350 -20 -25
-53 -74 -74 -108 -32 -55 -35 -65 -22 -75 161 -128 517 -372 689 -472 9 -5 97
-58 195 -117 98 -58 257 -151 353 -206 234 -133 259 -147 460 -254 41 -23 102
-55 135 -73 92 -50 507 -258 620 -310 273 -128 399 -180 565 -235 146 -48 132
-51 170 38 62 142 200 444 333 727 144 309 564 1149 596 1194 12 16 21 32 21
35 0 6 101 194 223 416 218 398 607 1038 869 1434 44 65 78 120 76 121 -2 2
-127 64 -278 138 -151 74 -410 201 -575 282 -165 81 -354 173 -420 205 -66 32
-192 92 -280 135 -233 112 -238 114 -312 90z"/>
<path d="M7690 19538 c0 -7 -12 -42 -26 -78 -25 -64 -38 -81 -163 -215 -99
-106 -144 -158 -236 -265 -309 -361 -555 -701 -807 -1113 -43 -71 -78 -130
-78 -133 0 -2 -17 -32 -38 -66 -82 -135 -246 -453 -350 -679 -257 -558 -465
-1152 -618 -1761 -32 -128 -36 -159 -39 -298 -4 -229 29 -412 110 -614 174
-432 586 -970 1085 -1416 46 -41 88 -80 94 -85 6 -6 46 -39 89 -75 43 -36 88
-73 100 -83 12 -10 37 -31 56 -45 19 -15 59 -47 90 -72 30 -25 122 -95 203
-156 120 -90 154 -111 180 -110 24 1 33 7 39 26 4 14 39 133 78 265 87 299
250 786 309 925 6 14 36 90 67 170 31 80 62 159 69 175 8 17 36 84 64 150 28
67 64 150 80 185 16 36 44 99 62 140 36 85 299 616 359 728 22 40 57 103 78
140 20 37 45 81 53 97 185 343 545 907 854 1340 61 86 81 113 146 199 17 21
30 42 30 47 0 4 -17 21 -37 36 -21 15 -40 30 -43 33 -3 3 -61 51 -130 105 -69
55 -127 102 -130 105 -3 3 -34 30 -70 60 -35 30 -96 84 -134 120 -38 36 -106
99 -150 140 -105 97 -367 359 -431 431 -27 31 -65 72 -83 92 -175 196 -390
532 -472 737 -12 30 -26 64 -31 75 -33 76 -87 280 -105 394 -3 18 -7 43 -9 54
-5 21 -14 122 -19 196 -3 36 -10 51 -39 78 -38 35 -57 41 -57 21z"/>
<path d="M15247 19106 c-40 -24 -62 -50 -99 -116 -21 -38 -58 -102 -208 -365
-10 -16 -33 -57 -52 -90 -20 -33 -47 -80 -60 -105 -14 -25 -57 -99 -95 -165
-77 -131 -256 -442 -283 -490 -9 -16 -85 -149 -168 -293 -84 -145 -152 -266
-152 -268 0 -2 -10 -21 -23 -42 -13 -20 -37 -62 -54 -92 -16 -30 -84 -152
-150 -270 -176 -314 -205 -367 -299 -555 -70 -138 -249 -515 -309 -650 -7 -16
-28 -61 -45 -100 -18 -38 -54 -118 -81 -176 -26 -59 -61 -134 -78 -168 -26
-55 -28 -62 -13 -70 9 -5 19 -9 22 -9 8 1 53 -12 75 -22 11 -5 65 -28 120 -51
55 -23 132 -56 170 -74 172 -81 329 -134 439 -151 73 -10 195 -11 246 -2 97
18 184 31 300 43 30 4 71 8 90 10 109 13 250 19 450 19 244 1 400 -7 556 -29
22 -3 60 -8 85 -10 24 -3 53 -7 65 -10 12 -3 39 -7 60 -11 21 -3 91 -17 154
-30 63 -14 126 -27 140 -30 14 -3 48 -12 76 -20 28 -8 60 -16 70 -18 35 -7
308 -98 399 -133 326 -126 608 -269 943 -480 187 -117 167 -111 185 -55 9 26
19 70 22 97 4 28 8 57 10 65 4 24 14 91 20 140 7 52 15 104 20 140 4 21 16
114 40 305 3 22 8 56 10 75 3 19 7 55 10 80 3 25 7 61 10 80 2 19 13 114 25
210 11 96 22 191 25 210 2 19 7 67 11 105 3 39 8 77 9 86 2 8 6 53 10 100 4
46 8 91 10 99 2 8 6 53 10 100 4 47 8 92 10 100 2 8 6 56 10 105 4 50 8 106
10 125 2 19 7 71 10 115 4 44 8 96 10 115 1 19 6 87 10 150 4 63 9 122 10 130
2 9 6 79 10 155 4 77 9 156 10 175 3 34 12 212 20 370 18 366 25 815 13 858
-13 47 -66 92 -134 114 -32 10 -189 52 -349 93 -295 76 -537 140 -815 214 -85
23 -162 44 -170 46 -105 26 -673 182 -975 267 -280 79 -343 88 -398 54z"/>
<path d="M22553 19065 c-4 -11 -8 -50 -8 -86 0 -62 2 -69 45 -125 24 -32 49
-64 55 -71 5 -6 48 -62 95 -123 47 -62 161 -210 253 -329 92 -119 176 -227
187 -241 11 -14 88 -113 172 -221 84 -107 164 -210 178 -228 14 -18 30 -38 35
-44 6 -7 24 -30 40 -52 39 -51 154 -197 167 -210 14 -13 -10 33 -100 194 -306
554 -662 1055 -1076 1516 -32 36 -36 37 -43 20z"/>
<path d="M22375 18815 c-255 -207 -524 -337 -910 -438 -63 -17 -74 -19 -199
-42 -43 -8 -86 -17 -95 -19 -19 -6 -529 -75 -558 -76 -6 0 12 -52 44 -122 30
-68 69 -157 87 -198 18 -41 42 -95 53 -120 186 -413 416 -1044 552 -1515 23
-77 45 -153 51 -170 13 -41 129 -496 145 -570 43 -198 95 -444 100 -470 2 -16
7 -41 10 -55 25 -126 68 -373 80 -455 3 -23 7 -50 9 -60 2 -11 7 -42 10 -70 4
-27 9 -57 11 -65 2 -8 6 -40 10 -71 3 -31 7 -65 9 -75 2 -11 7 -46 10 -79 4
-33 9 -71 11 -85 4 -24 20 -171 31 -275 3 -27 7 -66 9 -85 2 -19 7 -66 10
-105 15 -177 22 -206 56 -236 20 -18 90 -32 124 -25 11 2 55 7 97 11 43 3 92
8 110 10 18 3 56 7 83 10 89 10 304 40 358 50 53 10 143 25 182 31 22 3 43 8
46 10 4 2 24 6 45 9 81 12 368 93 495 139 402 146 637 298 958 616 158 157
203 223 235 346 22 85 16 265 -13 364 -12 41 -24 84 -26 94 -3 11 -11 40 -19
65 -8 25 -36 114 -62 196 -130 417 -322 897 -523 1310 -222 453 -473 867 -792
1305 -138 190 -209 283 -400 526 -35 44 -75 96 -89 114 -14 18 -43 56 -66 84
-22 28 -73 94 -114 146 -40 52 -76 98 -79 102 -4 4 -42 -22 -86 -57z"/>
<path d="M18200 18368 c-1 -7 -3 -150 -5 -318 -6 -419 -19 -781 -40 -1110 -3
-47 -8 -121 -10 -165 -3 -44 -7 -107 -9 -140 -3 -33 -8 -94 -11 -135 -3 -41
-8 -95 -10 -120 -2 -25 -7 -83 -10 -130 -3 -47 -8 -101 -11 -120 -2 -19 -6
-64 -9 -99 -5 -75 -14 -163 -21 -211 -3 -19 -7 -59 -9 -89 -5 -56 -12 -130
-20 -191 -2 -19 -7 -60 -10 -90 -3 -30 -7 -68 -9 -85 -2 -16 -7 -59 -11 -95
-4 -36 -8 -72 -10 -80 -1 -8 -6 -46 -9 -85 -4 -38 -9 -77 -11 -85 -2 -8 -6
-40 -9 -70 -3 -30 -8 -64 -10 -75 -2 -11 -7 -51 -10 -89 -4 -38 -9 -72 -11
-75 -1 -3 -8 -49 -14 -101 -12 -95 -14 -111 -31 -225 -5 -33 -12 -82 -16 -110
-3 -27 -9 -68 -13 -90 -23 -134 12 -313 78 -409 96 -137 212 -192 480 -226 86
-11 170 -22 186 -25 17 -2 109 -13 205 -25 96 -11 192 -23 213 -25 20 -3 54
-7 75 -10 63 -8 125 -15 167 -20 98 -10 155 -16 225 -25 41 -5 104 -12 140
-15 36 -3 72 -8 80 -10 8 -2 51 -6 95 -10 44 -3 91 -8 105 -10 14 -3 53 -7 85
-10 33 -2 80 -7 105 -9 25 -3 77 -7 115 -11 39 -3 88 -8 110 -10 48 -5 141
-13 255 -22 77 -6 557 -8 993 -4 l167 1 10 26 c6 14 11 40 12 57 1 32 -10 180
-17 227 -2 14 -6 59 -10 100 -4 41 -8 86 -10 100 -2 14 -6 50 -10 80 -3 30
-10 91 -16 135 -5 44 -12 98 -15 120 -2 22 -7 51 -9 65 -3 14 -7 46 -10 73 -2
26 -9 73 -14 105 -6 31 -13 77 -16 102 -14 104 -69 410 -111 615 -24 121 -47
234 -50 250 -23 123 -151 627 -219 860 -91 313 -280 876 -335 1000 -5 11 -19
45 -30 75 -11 30 -25 64 -29 75 -5 11 -24 56 -41 100 -40 99 -170 405 -181
425 -5 8 -33 67 -63 130 -61 128 -76 149 -132 181 -44 24 -41 24 -489 34 -154
3 -305 8 -335 10 -30 2 -118 6 -195 10 -77 3 -167 8 -200 10 -33 2 -103 6
-155 9 -140 8 -252 19 -335 31 -16 2 -50 7 -75 10 -41 4 -318 38 -417 50 -31
4 -43 2 -43 -7z"/>
<path d="M9647 16693 c-266 -362 -498 -709 -723 -1083 -65 -107 -124 -206
-133 -220 -9 -14 -21 -34 -27 -45 -6 -11 -44 -81 -86 -155 -281 -506 -508
-980 -704 -1470 -30 -74 -59 -144 -64 -155 -51 -111 -323 -909 -355 -1045 -2
-8 -18 -62 -35 -120 -34 -118 -41 -171 -29 -216 11 -37 76 -105 122 -127 18
-9 49 -27 70 -41 21 -14 39 -26 41 -26 3 0 68 -38 581 -340 143 -84 269 -158
280 -164 11 -6 64 -38 118 -71 54 -33 115 -69 135 -81 20 -11 111 -67 202
-124 91 -56 174 -108 185 -114 11 -6 38 -23 60 -37 176 -112 388 -186 600
-208 125 -13 446 -3 463 13 3 4 1 -5 51 226 44 205 81 359 113 465 12 39 22
75 24 80 5 28 72 215 121 340 50 127 206 453 270 565 79 138 256 403 324 485
288 350 501 561 784 779 223 172 327 264 432 380 164 181 267 351 353 581 21
55 47 123 57 150 11 28 19 56 17 63 -1 6 -2 18 -3 26 0 8 -13 29 -27 46 -26
30 -78 58 -459 240 -379 182 -917 448 -1125 558 -426 224 -620 338 -1150 675
-69 44 -168 107 -220 140 -52 33 -115 73 -139 88 -25 16 -48 29 -52 29 -4 0
-36 -39 -72 -87z"/>
<path d="M12891 14673 c-74 -175 -136 -326 -139 -335 -3 -13 49 4 219 73 123
50 238 96 254 103 17 7 135 55 263 106 128 51 230 96 225 100 -10 9 -668 270
-680 270 -5 0 -69 -143 -142 -317z"/>
<path d="M14750 14502 c-86 -73 -290 -280 -352 -357 -207 -257 -306 -495 -291
-699 10 -136 144 -471 418 -1041 328 -682 420 -891 499 -1129 52 -155 76 -269
79 -363 2 -87 -13 -258 -29 -331 -3 -13 -7 -43 -10 -65 -7 -51 -50 -244 -70
-311 -7 -27 -12 -51 -9 -54 12 -12 287 204 421 331 231 219 376 438 423 640
12 52 15 164 6 212 -28 139 -167 530 -275 770 -10 22 -32 74 -50 115 -18 41
-53 118 -77 170 -25 52 -56 120 -70 150 -14 30 -123 255 -243 500 -319 650
-314 633 -315 1158 0 193 0 352 0 352 0 -1 -25 -22 -55 -48z"/>
<path d="M5212 14438 c-27 -88 -66 -277 -77 -363 -4 -32 -8 -66 -10 -75 -5
-25 -14 -101 -20 -165 -3 -33 -8 -76 -10 -95 -3 -19 -7 -75 -10 -125 -3 -49
-7 -112 -10 -140 -28 -364 -17 -1216 20 -1595 3 -25 9 -94 15 -155 10 -105 17
-171 25 -225 2 -14 7 -50 10 -80 4 -30 9 -64 11 -75 2 -11 11 -60 20 -110 8
-49 22 -119 31 -155 8 -36 16 -72 18 -80 7 -35 27 -103 36 -124 l10 -22 902 1
901 0 12 43 c7 23 15 57 18 75 6 33 12 63 21 107 7 34 7 32 68 335 31 149 57
284 60 300 5 32 36 197 43 230 17 78 16 115 -5 157 -27 55 -60 91 -141 152
-109 83 -417 328 -454 361 -6 6 -42 37 -81 70 -38 33 -75 65 -81 70 -6 6 -47
41 -90 80 -94 83 -378 365 -453 450 -69 78 -274 337 -327 412 -163 234 -291
476 -422 797 -6 15 -13 1 -30 -56z"/>
<path d="M24667 14345 c-220 -368 -585 -640 -1072 -796 -82 -27 -145 -45 -185
-55 -8 -2 -53 -13 -100 -25 -47 -11 -92 -22 -100 -24 -8 -2 -42 -10 -75 -18
-52 -13 -114 -26 -137 -28 -4 0 -22 -4 -39 -9 -18 -5 -48 -12 -68 -15 -20 -3
-48 -8 -61 -11 -26 -5 -277 -50 -340 -60 -19 -3 -100 -16 -180 -29 -80 -13
-162 -26 -182 -29 -120 -18 -178 -41 -205 -83 -26 -39 -26 -45 -23 -208 7
-306 5 -1235 -3 -1390 -14 -276 -16 -312 -21 -372 -3 -32 -8 -120 -12 -195
l-6 -138 1420 0 1420 0 30 128 c31 128 37 157 47 222 3 19 8 42 10 50 2 8 6
38 10 65 3 28 8 61 10 75 17 116 19 133 30 260 4 41 8 86 10 100 2 14 6 68 10
120 3 52 8 115 10 140 26 279 26 1257 0 1530 -2 19 -6 73 -10 120 -4 47 -9 99
-11 115 -2 17 -6 53 -9 80 -11 95 -35 240 -51 310 -20 88 -66 235 -73 235 -3
0 -23 -29 -44 -65z"/>
<path d="M13303 13943 c-77 -76 -156 -158 -175 -183 -180 -233 -249 -431 -212
-607 19 -92 126 -358 247 -613 51 -108 187 -398 254 -540 175 -372 266 -644
266 -800 1 -50 -10 -179 -18 -213 -2 -12 -6 -40 -9 -62 -3 -22 -7 -49 -10 -60
-2 -11 -11 -54 -20 -97 -9 -42 -20 -88 -26 -103 -19 -49 -13 -58 22 -33 168
118 380 314 471 435 26 34 65 94 86 135 85 158 98 258 57 418 -41 158 -181
518 -301 775 -18 39 -47 102 -65 140 -18 39 -84 176 -148 305 -277 567 -274
556 -271 973 1 142 -1 260 -4 263 -3 3 -68 -57 -144 -133z"/>
<path d="M16225 14070 c-88 -78 -283 -283 -326 -340 -95 -129 -165 -261 -183
-345 -3 -16 -9 -41 -12 -55 -11 -50 -5 -150 11 -207 21 -72 111 -302 161 -409
20 -43 44 -97 54 -119 10 -22 78 -168 152 -325 75 -157 161 -343 192 -415 31
-71 61 -139 66 -150 19 -44 61 -158 80 -217 51 -158 63 -273 46 -438 -10 -102
-32 -218 -67 -360 -10 -41 -17 -75 -16 -77 8 -7 233 174 327 263 175 169 294
345 330 489 34 138 -10 315 -174 711 -99 239 -166 386 -425 917 -133 274 -153
323 -178 432 -14 66 -18 148 -18 388 0 147 -2 267 -5 267 -3 -1 -9 -5 -15 -10z"/>
<path d="M18412 13334 c142 -150 375 -459 505 -669 249 -402 444 -861 557
-1310 31 -125 44 -185 90 -425 l13 -65 1096 -1 1097 -2 0 1139 c0 904 -3 1139
-12 1140 -7 0 -22 2 -32 4 -11 2 -67 7 -125 10 -128 8 -238 15 -436 31 -68 5
-161 11 -285 19 -47 3 -110 7 -140 10 -30 2 -93 7 -140 11 -47 3 -105 7 -130
9 -25 2 -92 6 -150 10 -58 3 -121 8 -140 10 -19 2 -82 7 -140 10 -58 4 -121 8
-140 10 -19 2 -82 6 -140 10 -58 3 -121 8 -140 10 -19 2 -80 7 -135 10 -55 3
-125 8 -155 11 -30 2 -86 7 -125 9 -38 3 -99 7 -135 10 -36 2 -101 7 -145 10
-44 3 -109 8 -145 11 -93 7 -159 11 -294 19 l-120 7 46 -48z"/>
<path d="M7400 11943 c-8 -43 -14 -80 -15 -83 -1 -3 -5 -25 -9 -50 -5 -25 -10
-54 -12 -65 -28 -147 -69 -362 -84 -445 -11 -58 -22 -116 -25 -130 -34 -166
-55 -294 -50 -299 4 -3 492 -6 1085 -6 594 0 1076 3 1071 8 -9 9 -202 127
-208 127 -2 0 -32 17 -66 39 -34 21 -228 137 -432 256 -203 120 -437 258 -518
306 -82 49 -151 89 -153 89 -3 0 -21 11 -42 24 -106 68 -515 306 -525 306 -2
0 -10 -35 -17 -77z"/>
<path d="M3197 9553 c-2 -5 -3 -777 -3 -1718 l1 -1710 404 0 404 0 0 438 0
439 366 -4 c414 -5 440 -9 515 -78 52 -48 85 -135 94 -247 3 -43 6 -183 7
-310 l0 -233 410 0 410 0 -1 312 c-2 415 -8 492 -49 611 -51 148 -157 233
-423 338 l-93 36 88 33 c320 119 460 284 481 563 15 212 8 754 -12 872 -49
292 -209 492 -446 559 -73 20 -98 24 -205 31 -49 3 -117 8 -150 10 -215 16
-649 31 -1505 51 -151 3 -278 8 -282 10 -4 2 -8 1 -11 -3z m1606 -822 c43 -2
118 -78 155 -158 30 -66 49 -162 46 -233 -1 -49 -15 -194 -19 -200 -1 -3 -6
-41 -10 -85 -7 -87 -32 -156 -68 -188 -29 -26 -95 -55 -143 -63 -47 -8 -742
-10 -750 -2 -3 3 -6 213 -7 467 -2 396 0 461 13 463 13 3 720 2 783 -1z"/>
<path d="M6939 9532 c-26 -3 -33 -16 -54 -107 -11 -43 -39 -148 -50 -185 -11
-35 -159 -577 -289 -1060 -8 -30 -24 -91 -36 -135 -12 -44 -24 -87 -26 -95 -2
-8 -12 -46 -23 -85 -85 -312 -180 -663 -212 -785 -11 -41 -36 -131 -56 -200
-19 -69 -36 -132 -38 -141 -4 -17 -92 -344 -131 -484 -14 -49 -28 -99 -30
-111 l-4 -21 416 0 c413 0 416 0 424 21 4 12 17 53 28 91 11 39 29 102 41 140
11 39 23 88 28 110 16 90 25 119 42 148 9 16 31 38 49 49 33 20 46 21 515 21
265 0 497 -3 514 -7 35 -8 73 -47 90 -92 6 -16 21 -70 33 -121 11 -51 39 -148
60 -215 22 -68 40 -129 40 -135 0 -16 -42 -14 404 -16 283 -2 383 1 392 10 14
15 10 56 -17 153 -11 41 -27 98 -34 125 -52 188 -99 360 -115 420 -10 39 -37
135 -59 215 -22 80 -56 204 -75 275 -139 504 -173 628 -213 770 -24 88 -46
168 -49 179 -2 10 -10 42 -18 70 -8 28 -22 76 -30 106 -8 30 -53 195 -101 365
-47 171 -92 333 -100 360 -83 303 -84 304 -153 347 -32 19 -48 20 -585 21
-303 1 -564 1 -578 -1z m640 -764 c11 -32 54 -199 71 -268 4 -19 39 -156 78
-305 160 -621 212 -824 212 -832 0 -4 -174 -8 -387 -8 -381 0 -388 1 -385 20
2 11 46 191 99 400 52 209 96 387 98 395 13 65 147 590 155 608 15 34 46 28
59 -10z"/>
<path d="M8988 9532 c-13 -3 -14 -9 -3 -55 15 -58 106 -411 136 -527 11 -41
22 -82 24 -90 2 -8 15 -62 30 -120 15 -58 28 -113 30 -123 2 -10 14 -52 25
-95 12 -42 23 -84 25 -92 2 -8 26 -105 55 -215 29 -110 60 -234 70 -275 10
-41 26 -102 35 -135 9 -33 18 -67 20 -75 8 -37 157 -618 166 -646 5 -17 11
-40 13 -50 3 -15 103 -408 121 -474 2 -8 13 -51 24 -95 11 -44 31 -125 46
-180 14 -55 30 -117 36 -137 l9 -36 478 0 c262 0 522 -1 578 -2 118 -2 170 10
206 47 36 37 51 76 93 240 62 239 101 386 220 838 64 242 118 447 120 455 2 8
11 40 19 70 8 30 49 186 91 345 42 160 88 333 101 385 30 112 134 517 140 543
6 24 7 28 68 267 30 118 51 217 47 220 -16 9 -811 4 -820 -6 -5 -5 -25 -72
-45 -149 -20 -77 -56 -216 -80 -310 -24 -93 -70 -269 -101 -390 -31 -121 -77
-296 -102 -390 -24 -93 -46 -177 -48 -185 -2 -9 -21 -85 -43 -170 -23 -85 -54
-207 -71 -270 -16 -63 -50 -195 -76 -293 -26 -99 -48 -187 -51 -198 -12 -57
-75 -293 -79 -297 -3 -3 -68 193 -79 238 -3 14 -36 140 -72 280 -36 140 -67
262 -69 270 -2 8 -19 76 -38 150 -66 250 -323 1262 -331 1304 -11 52 -77 304
-89 334 -15 44 -70 92 -105 93 -76 3 -710 4 -724 1z"/>
<path d="M26735 9532 l-40 -3 0 -1704 c0 -938 2 -1705 5 -1706 19 -4 527 -10
965 -12 718 -2 977 12 1170 64 115 30 127 35 190 67 135 67 239 171 305 302
33 67 76 198 84 262 4 26 8 53 11 60 3 13 7 52 20 203 3 39 8 88 10 110 26
289 26 1193 0 1346 -2 13 -6 62 -9 109 -3 47 -8 101 -11 121 -14 111 -67 275
-106 331 -11 14 -19 29 -19 34 0 12 -70 96 -119 142 -85 81 -188 140 -311 180
-65 22 -191 50 -220 49 -8 0 -37 3 -65 6 -67 8 -208 19 -309 23 -253 10 -1461
23 -1551 16z m1455 -797 c163 -6 203 -15 277 -62 72 -45 109 -79 127 -118 26
-53 37 -598 22 -1065 -13 -403 -16 -418 -88 -489 -87 -86 -118 -91 -605 -91
l-413 0 0 63 c-1 70 -1 1711 0 1742 0 19 8 20 217 23 120 2 219 4 221 6 2 2
24 2 50 0 26 -1 112 -6 192 -9z"/>
<path d="M12285 9505 c-2 -11 -3 -776 -2 -1700 l2 -1680 1108 -1 c609 -1 1107
2 1108 5 1 8 1 649 0 686 l-1 30 -704 -1 -704 -1 1 327 1 327 630 1 c347 0
638 1 646 1 13 1 15 41 14 319 -1 174 -2 320 -3 324 0 4 -287 7 -637 7 -350 0
-638 2 -641 5 -5 4 -8 540 -4 644 l1 22 688 0 687 0 -1 348 c-1 191 -2 349 -3
352 0 3 -492 5 -1091 5 -1087 1 -1091 0 -1095 -20z"/>
<path d="M15048 9516 c-2 -6 -4 -771 -4 -1701 l1 -1690 1043 -1 1042 -1 0 394
0 393 -645 0 c-607 0 -645 1 -646 18 0 9 -1 598 -1 1308 l-1 1292 -393 0
c-283 0 -394 -4 -396 -12z"/>
<path d="M18559 9510 c-3 -47 -3 -3358 -1 -3371 3 -14 45 -16 395 -15 l392 1
2 620 c1 341 2 625 3 632 0 8 158 11 621 11 409 0 624 3 628 10 4 8 6 634 2
700 -1 9 -132 12 -619 12 l-619 0 1 352 1 353 663 0 662 0 1 85 c2 286 0 613
-5 618 -4 3 -483 6 -1066 6 -936 1 -1060 -1 -1061 -14z"/>
<path d="M23933 9519 c-15 -5 -16 -143 -17 -1698 -1 -1684 -1 -1692 19 -1696
11 -2 512 -3 1113 -3 l1092 1 -2 356 -3 356 -695 0 c-382 0 -697 3 -700 6 -3
4 -5 155 -5 336 l0 328 645 3 646 2 -1 315 c0 204 -3 315 -10 316 -5 1 -296 2
-645 3 l-635 1 0 335 0 335 682 1 c376 0 686 3 689 7 9 8 9 685 0 694 -8 8
-2150 10 -2173 2z"/>
<path d="M509 9481 c0 -42 0 -684 1 -721 l0 -26 378 1 c207 1 384 -1 392 -3
13 -3 15 -151 15 -1303 0 -714 2 -1300 5 -1300 12 -3 786 -5 795 -2 7 2 10
428 10 1301 -1 713 0 1302 2 1307 2 7 143 10 408 10 l405 0 -2 385 -3 385
-1202 1 -1203 1 -1 -36z"/>
<path d="M21127 9513 c-7 -12 -4 -3383 2 -3384 3 -1 504 -2 1114 -3 l1107 -1
0 357 c0 279 -3 358 -12 359 -7 0 -325 1 -705 1 l-693 1 0 329 c0 255 3 328
13 329 6 0 296 1 644 1 455 1 633 4 636 12 1 6 3 148 3 316 l-1 305 -643 1
c-353 1 -645 4 -648 7 -9 8 -8 656 0 664 4 5 314 8 689 8 l682 0 0 350 0 350
-1092 3 c-600 1 -1094 -1 -1096 -5z"/>
<path d="M7070 4721 c0 -5 4 -11 9 -13 5 -1 68 -59 138 -128 271 -262 598
-548 874 -762 391 -303 918 -661 1226 -833 10 -5 56 -32 103 -59 369 -214 960
-500 1346 -651 65 -26 133 -53 149 -60 96 -41 717 -255 785 -270 8 -2 86 -24
173 -49 199 -58 511 -135 732 -182 162 -34 389 -76 539 -99 21 -4 48 -8 60
-11 11 -2 73 -11 136 -20 63 -8 126 -17 140 -19 70 -10 110 -15 155 -20 28 -2
75 -8 105 -11 73 -8 112 -12 195 -18 39 -3 97 -8 130 -11 144 -12 178 -14 310
-22 276 -16 1226 -8 1380 11 17 2 73 7 125 11 52 3 106 8 120 10 14 2 66 6
115 10 50 3 97 8 105 10 8 2 42 6 75 10 33 3 71 8 85 10 14 2 45 6 70 9 107
13 138 17 190 26 30 5 75 12 100 15 38 6 165 27 295 50 372 67 903 198 1295
321 298 94 664 224 825 293 11 5 99 42 195 82 96 40 211 89 255 109 44 21 112
52 150 70 164 75 495 244 668 342 38 21 71 38 73 38 2 0 106 61 231 136 265
158 513 320 742 483 90 64 173 123 185 131 19 13 179 135 281 214 182 141 563
468 737 635 56 53 131 124 167 158 l66 63 -633 0 -633 0 -107 -88 c-170 -141
-435 -341 -627 -474 -186 -129 -533 -352 -653 -420 -21 -11 -50 -29 -67 -39
-16 -11 -36 -22 -43 -25 -6 -3 -81 -44 -165 -91 -387 -216 -958 -477 -1377
-630 -135 -50 -493 -170 -570 -192 -36 -11 -120 -35 -187 -55 -133 -39 -374
-101 -593 -151 -8 -2 -91 -19 -185 -38 -161 -33 -206 -42 -265 -52 -27 -4 -40
-6 -180 -29 -53 -9 -116 -18 -140 -21 -43 -4 -101 -13 -141 -20 -10 -2 -49 -7
-86 -10 -37 -4 -75 -8 -83 -10 -8 -2 -51 -7 -95 -10 -44 -4 -92 -8 -107 -11
-15 -2 -60 -6 -100 -9 -40 -3 -107 -8 -148 -11 -208 -15 -514 -26 -725 -26
-170 -1 -563 11 -630 17 -22 3 -80 7 -130 10 -49 3 -110 7 -135 9 -105 9 -206
19 -220 21 -8 2 -49 6 -90 10 -41 4 -82 8 -90 10 -8 2 -44 6 -80 10 -36 4 -67
8 -70 10 -3 2 -30 6 -60 10 -47 5 -166 23 -275 41 -16 2 -79 14 -140 25 -60
12 -121 23 -135 25 -14 2 -54 11 -90 19 -109 24 -424 96 -440 100 -80 22 -178
48 -190 50 -185 43 -882 276 -1075 359 -16 8 -88 37 -160 66 -71 30 -157 66
-190 81 -33 15 -112 50 -175 79 -172 78 -460 223 -635 320 -27 15 -70 39 -95
52 -352 195 -920 570 -1220 805 -8 6 -91 73 -185 147 l-170 136 -622 0 c-371
0 -623 -4 -623 -9z"/>
<path d="M13100 4720 c-63 -3 -602 -5 -1198 -4 -596 0 -1085 -2 -1087 -6 -2
-3 9 -37 25 -75 15 -39 61 -153 100 -255 40 -102 78 -198 85 -215 7 -16 23
-55 35 -85 62 -160 163 -365 210 -424 22 -29 121 -128 149 -150 36 -28 160
-93 211 -111 25 -9 149 -43 275 -75 508 -132 753 -197 980 -261 215 -60 257
-67 359 -64 139 4 249 45 412 151 177 115 378 295 525 469 19 22 42 49 53 60
118 129 570 806 550 825 -17 16 -361 113 -479 135 -52 10 -138 25 -175 31 -19
3 -48 8 -65 11 -47 8 -74 11 -165 18 -47 4 -94 9 -104 11 -70 13 -515 22 -696
14z"/>
<path d="M9230 4704 c23 -27 330 -254 495 -366 169 -115 393 -253 555 -343
216 -119 783 -385 821 -385 6 0 7 4 4 10 -3 5 -53 148 -110 317 -176 525 -234
678 -267 712 -66 68 -19 64 -801 66 -588 2 -706 1 -697 -11z"/>
<path d="M15113 4705 c-23 -8 -116 -59 -133 -72 -8 -7 54 -52 85 -63 26 -9
346 -77 400 -85 18 -2 165 -30 220 -41 11 -2 34 -7 50 -9 54 -10 189 -34 220
-40 17 -3 42 -8 57 -10 15 -2 71 -11 125 -20 103 -17 117 -19 198 -31 28 -3
59 -8 70 -10 28 -6 210 -32 270 -39 60 -7 109 -14 150 -20 17 -2 57 -7 90 -10
33 -3 74 -8 90 -10 17 -2 57 -7 90 -10 33 -3 76 -8 95 -10 19 -2 71 -6 115
-10 44 -3 94 -8 111 -10 17 -3 69 -7 115 -10 46 -3 113 -7 149 -10 271 -21
859 -34 928 -21 82 16 123 49 373 294 137 135 249 249 249 252 0 12 -4085 7
-4117 -5z"/>
<path d="M19412 4712 c-24 -4 -77 -55 -331 -318 -79 -82 -164 -170 -188 -195
l-45 -47 33 3 c32 3 155 13 244 20 100 7 201 17 215 20 8 2 49 7 90 10 41 4
111 13 155 20 44 7 100 16 125 20 142 19 401 94 553 160 161 69 364 187 447
261 15 14 34 30 44 37 13 10 -121 12 -651 12 -368 0 -678 -1 -691 -3z"/>
<path d="M14934 4431 c-47 -16 -51 -20 -200 -244 -133 -198 -282 -408 -335
-472 -9 -11 -52 -63 -95 -115 -89 -108 -299 -323 -381 -390 -30 -25 -61 -50
-67 -56 -24 -23 -204 -152 -259 -186 l-58 -36 38 -6 c21 -3 56 -8 78 -11 22
-3 56 -8 75 -10 19 -3 55 -7 80 -10 25 -3 63 -7 85 -10 22 -3 72 -7 110 -11
39 -3 79 -7 91 -9 11 -2 65 -6 120 -10 54 -4 110 -8 124 -11 160 -25 1097 -25
1290 0 14 2 61 7 104 11 43 4 86 8 95 10 9 1 41 6 71 10 100 12 124 16 238 36
845 146 1592 488 2239 1023 46 38 83 72 83 77 0 20 -49 31 -153 34 -209 7
-412 16 -452 20 -22 2 -85 7 -140 10 -55 3 -122 8 -150 10 -27 2 -84 7 -125
10 -41 3 -94 8 -117 11 -24 2 -62 6 -85 9 -24 2 -74 7 -113 10 -38 3 -81 8
-95 10 -14 3 -52 7 -85 10 -33 4 -71 8 -85 10 -85 12 -110 15 -155 20 -58 6
-132 16 -159 21 -11 2 -56 8 -100 14 -141 19 -150 21 -176 25 -14 3 -38 7 -55
9 -34 5 -394 64 -440 72 -170 30 -307 55 -482 90 -13 2 -34 6 -48 8 -13 3 -60
11 -102 20 -97 18 -148 18 -209 -3z"/>
<path d="M19787 4134 c-1 -1 -40 -5 -87 -8 -47 -3 -105 -8 -130 -10 -25 -3
-79 -7 -120 -11 -41 -3 -95 -8 -120 -10 -61 -5 -149 -13 -240 -21 -41 -3 -82
-8 -91 -9 -8 -2 -55 -6 -105 -10 -49 -3 -112 -13 -139 -20 -43 -12 -201 -106
-420 -250 -43 -28 -169 -108 -648 -414 -49 -31 -96 -61 -106 -66 -11 -6 -36
-22 -57 -36 -22 -14 -72 -47 -112 -73 -40 -27 -72 -50 -70 -51 2 -2 24 1 48 6
25 6 55 13 68 15 30 6 303 77 412 108 332 93 797 260 1083 390 32 14 59 26 61
26 15 0 468 221 611 298 197 106 250 135 260 143 5 6 -13 8 -43 7 -29 -1 -54
-3 -55 -4z"/>
</g>
</svg>
